<svg width="1526" height="1419" viewBox="0 0 1526 1419" fill="none" xmlns="http://www.w3.org/2000/svg">
<path d="M802.466 1314.58C889.95 1360.04 976.314 1379.51 1053.01 1370.84L1078.82 1367.92L1072.98 1316.29L1047.17 1319.21C989.346 1325.75 924.171 1313.26 856.626 1283.08C920.999 1241.79 984.109 1187.31 1041.54 1123.32C1125.75 1105.54 1204.5 1078.11 1272.42 1043.01C1264.8 1116.61 1243 1179.31 1208.37 1226.14L1192.92 1247.02L1234.69 1277.92L1250.14 1257.03C1296.08 1194.91 1322.42 1110.35 1326.77 1011.85C1454.75 930.361 1525.02 823.263 1525.02 709.082C1525.02 594.9 1454.74 487.802 1326.77 406.314C1322.42 307.83 1296.1 223.271 1250.18 161.141L1234.74 140.249L1192.96 171.128L1208.4 192.02C1243.01 238.861 1264.8 301.566 1272.42 375.155C1204.5 340.059 1125.74 312.626 1041.54 294.853C984.103 230.858 920.996 176.379 856.626 135.081C924.174 104.902 989.349 92.4159 1047.17 98.9539L1072.98 101.873L1078.82 50.2451L1053.01 47.3261C976.317 38.6525 889.953 58.1264 802.466 103.583C667.837 33.4876 539.931 26.1692 441.077 83.2508C342.209 140.344 284.594 254.782 277.988 406.407C194.906 459.363 134.852 524.427 103.994 595.264L93.6194 619.081L141.253 639.832L151.627 616.019C174.887 562.624 218.273 512.429 278.146 469.07C281.726 545.432 297.384 627.334 324.082 709.081C297.384 790.835 281.726 872.728 278.146 949.093C218.276 905.737 174.887 855.542 151.627 802.144L141.253 778.331L93.6194 799.082L103.994 822.899C134.855 893.739 194.912 958.806 277.988 1011.76C284.597 1163.38 342.212 1277.82 441.077 1334.91C539.934 1391.99 667.837 1384.67 802.466 1314.58ZM802.407 1255.33C750.222 1225.17 698.293 1185.29 649.304 1137.9C699.371 1144.4 750.594 1147.75 802.407 1147.75C854.21 1147.75 905.421 1144.4 955.482 1137.9C906.49 1185.3 854.568 1225.18 802.407 1255.33ZM329.33 982.182C329.366 921.952 337.938 857.058 354.49 790.912C373.883 837.491 396.595 883.522 422.515 928.419C448.426 973.306 476.931 1015.99 507.577 1056.07C441.977 1037.32 381.485 1012.28 329.33 982.182ZM329.33 435.981C381.479 405.885 441.974 380.85 507.577 362.097C476.931 402.183 448.429 444.866 422.515 489.75C396.595 534.647 373.88 580.678 354.487 627.257C337.935 561.111 329.363 496.226 329.33 435.981ZM1250.33 627.254C1230.93 580.675 1208.22 534.647 1182.3 489.747C1156.38 444.848 1127.88 402.171 1097.24 362.106C1162.83 380.856 1223.32 405.891 1275.49 435.984C1275.45 496.22 1266.88 561.108 1250.33 627.254ZM467.509 515.727C503.741 452.968 545.176 394.722 590.665 342.34C658.815 329.136 729.976 322.372 802.407 322.372C874.816 322.372 945.972 329.136 1014.12 342.343C1059.6 394.683 1101.05 452.929 1137.3 515.73C1173.54 578.506 1203.27 643.517 1225.89 709.084C1203.27 774.649 1173.55 839.66 1137.3 902.439C1101.05 965.234 1059.61 1023.47 1014.12 1075.83C945.969 1089.03 874.813 1095.79 802.407 1095.79C729.976 1095.79 658.815 1089.03 590.662 1075.83C545.179 1023.45 503.744 965.201 467.509 902.439C431.266 839.663 401.54 774.655 378.923 709.084C401.54 643.517 431.266 578.506 467.509 515.727ZM1275.49 982.179C1223.32 1012.27 1162.83 1037.31 1097.24 1056.06C1127.88 1015.99 1156.38 973.315 1182.3 928.416C1208.22 883.519 1230.94 837.488 1250.33 790.912C1266.88 857.058 1275.44 921.955 1275.49 982.179ZM1473.07 709.082C1473.07 796.628 1421.43 880.675 1326.63 949.167C1323.05 872.788 1307.43 790.862 1280.73 709.079C1307.44 627.296 1323.07 545.369 1326.64 468.993C1421.43 537.491 1473.07 621.538 1473.07 709.082ZM955.482 280.263C905.421 273.761 854.21 270.413 802.407 270.413C750.588 270.413 699.368 273.758 649.304 280.263C698.296 232.868 750.225 192.994 802.407 162.83C854.568 192.985 906.484 232.856 955.482 280.263ZM467.063 128.248C542.853 84.481 641.48 87.1885 748.241 135.045C683.82 176.361 620.68 230.852 563.247 294.853C479.01 312.632 400.247 340.07 332.347 375.173C344.288 258.791 391.258 172.019 467.063 128.248ZM467.062 1289.91C391.255 1246.14 344.288 1159.37 332.347 1042.99C400.253 1078.1 479.013 1105.53 563.241 1123.31C620.68 1187.32 683.817 1241.8 748.238 1283.12C641.477 1330.97 542.853 1333.68 467.062 1289.91Z" fill="#AB8BD8" fill-opacity="0.62"/>
<path d="M582.926 709.07C582.926 830.294 681.198 928.565 802.421 928.565C923.645 928.565 1021.92 830.294 1021.92 709.07C1021.92 587.846 923.645 489.575 802.421 489.575C681.198 489.575 582.926 587.846 582.926 709.07Z" fill="#AB8BD8" fill-opacity="0.62"/>
<path d="M582.912 709.08C582.912 587.849 681.178 489.585 802.407 489.585C923.635 489.585 1021.9 587.852 1021.9 709.08C1021.9 641.666 923.635 587.068 802.407 587.068C681.178 587.068 582.912 641.669 582.912 709.08Z" fill="#AB8BD8" fill-opacity="0.62"/>
<path d="M0.000103144 709.069C0.000100591 767.481 47.3521 814.833 105.764 814.833C164.175 814.833 211.527 767.481 211.527 709.069C211.527 650.658 164.175 603.306 105.764 603.306C47.3521 603.306 0.000105697 650.658 0.000103144 709.069Z" fill="#AB8BD8" fill-opacity="0.62"/>
<path d="M1044.96 1312.41C1044.96 1370.82 1092.32 1418.18 1150.73 1418.18C1209.14 1418.18 1256.49 1370.82 1256.49 1312.41C1256.49 1254 1209.14 1206.65 1150.73 1206.65C1092.32 1206.65 1044.96 1254 1044.96 1312.41Z" fill="#AB8BD8" fill-opacity="0.62"/>
<path d="M1044.98 105.768C1044.98 164.179 1092.33 211.531 1150.74 211.531C1209.15 211.531 1256.51 164.179 1256.51 105.768C1256.51 47.356 1209.15 0.00397084 1150.74 0.00396829C1092.33 0.00396573 1044.98 47.3559 1044.98 105.768Z" fill="#AB8BD8" fill-opacity="0.62"/>
<path d="M1046.07 104.668C1046.07 85.5957 1051.17 67.7272 1060.12 52.3338C1078.17 21.0706 1112.02 6.0393e-05 1150.74 6.20857e-05C1208.57 6.46135e-05 1255.41 46.8741 1255.41 104.668C1255.41 77.8454 1208.57 56.1196 1150.74 56.1196C1112.02 56.1196 1078.17 65.9072 1060.12 80.3921C1051.16 87.5288 1046.07 95.8271 1046.07 104.668Z" fill="#AB8BD8" fill-opacity="0.62"/>
<path d="M1046.07 1311.31C1046.07 1292.23 1051.16 1274.36 1060.12 1258.97C1078.17 1227.71 1112.01 1206.64 1150.74 1206.64C1208.56 1206.64 1255.4 1253.51 1255.4 1311.31C1255.4 1284.48 1208.56 1262.76 1150.74 1262.76C1112.01 1262.76 1078.17 1272.54 1060.12 1287.03C1051.16 1294.16 1046.07 1302.46 1046.07 1311.31Z" fill="#AB8BD8" fill-opacity="0.62"/>
<path d="M1.09421 707.985C1.09422 688.913 6.19061 671.045 15.1442 655.651C33.1945 624.388 67.0402 603.317 105.765 603.317C163.594 603.317 210.432 650.191 210.432 707.985C210.432 681.163 163.591 659.437 105.765 659.437C67.0432 659.437 33.1974 669.225 15.1442 683.709C6.18465 690.843 1.09422 699.139 1.09421 707.985Z" fill="#AB8BD8" fill-opacity="0.62"/>
</svg>
