<svg width="1222" height="559" viewBox="0 0 1222 559" fill="none" xmlns="http://www.w3.org/2000/svg">
<g clip-path="url(#clip0_6828_3648)">
<path d="M295.405 256.387C267.638 229.083 234.863 216.416 196.286 219.373C193.311 219.602 190.247 220.225 188.67 216.561C187.661 214.217 185.715 214.225 183.642 214.873C180.99 215.702 178.339 216.538 175.7 217.412C172.252 218.555 169.296 219.225 167.694 214.482C166.142 209.889 168.386 208.345 172.091 207.264C174.567 206.542 177.025 205.733 179.437 204.82C181.385 204.083 184.229 203.668 183.048 200.569C182.034 197.909 179.707 199.086 177.918 199.714C171.364 202.013 164.852 204.428 158.324 206.802C154.884 208.054 151.992 208.7 150.362 203.936C148.74 199.197 151.305 197.894 154.87 196.834C161.336 194.914 167.822 193.053 174.247 191C176.245 190.362 179.097 189.524 178.283 186.786C177.346 183.636 174.677 185.468 172.745 185.995C170.066 186.724 167.434 187.639 164.813 188.562C161.364 189.776 159.301 188.917 158.041 185.206C156.672 181.168 158.635 179.857 161.898 178.839C165.112 177.837 168.294 176.69 171.394 175.379C173.133 174.643 174.408 173.242 173.478 171.113C172.644 169.203 170.967 169.415 169.394 169.934C157.897 173.722 146.4 177.509 134.931 181.381C131.329 182.597 132.401 185.328 133.212 187.81C137.467 200.834 141.525 213.929 146.14 226.824C147.984 231.977 146.662 234.601 142.195 237.416C97.595 265.532 75.5681 316.054 86.1218 367.172C90.9488 390.552 101.467 411.314 118.732 428.266C119.863 429.377 120.986 430.502 122.034 431.691C122.401 432.108 122.531 432.734 123.064 433.919C115.725 438.944 107.452 442.065 99.2872 445.326C96.7735 446.33 95.4161 443.839 94.0049 442.265C74.4182 420.416 62.4696 394.997 57.9217 365.978C50.8686 320.973 62.3028 281.062 90.5068 245.663C96.3396 238.343 102.976 231.771 110.262 225.915C113.174 223.574 113.982 221.229 112.714 217.689C110.236 210.775 107.952 203.785 105.812 196.759C104.663 192.986 102.92 191.793 98.8391 192.965C90.9356 195.237 84.1203 191.714 81.4484 184.62C78.6636 177.226 81.6133 170.096 89.212 166.329C91.8663 165.013 94.6918 164 97.5116 163.068C128.242 152.907 158.978 142.766 189.738 132.697C192.928 131.653 196.244 130.753 199.566 130.401C206.532 129.664 212.955 134.53 214.558 141.33C216.165 148.144 213.189 155.04 206.6 157.43C201.391 159.319 200.491 161.784 202.462 166.695C204.824 172.58 206.739 178.673 208.411 184.794C209.651 189.33 212.097 191 216.819 191.334C250.79 193.735 280.778 205.987 306.607 228.3C312.19 233.123 316.945 238.715 321.958 244.076C324.314 246.595 324.867 248.875 322.543 251.891C317.865 257.966 313.485 264.27 308.564 271.057C303.818 265.755 299.768 261.229 295.405 256.387Z" fill="#392663"/>
<path d="M163.995 324.856C184.833 318.941 201.104 306.096 218.043 294.451C233.049 284.135 247.86 273.562 264.761 266.339C278.549 260.446 290.647 262.323 298.378 271.753C301.455 275.506 301.44 278.207 298.283 281.991C280.214 303.649 260.69 323.91 240.015 343.051C215.698 365.564 190.074 386.493 162.36 404.731C152.607 411.15 142.423 416.911 132.547 423.149C129.785 424.893 127.888 424.363 125.785 422.242C105.247 401.526 92.526 377.078 90.3857 347.675C89.5853 336.678 94.1199 331.877 105.246 331.688C119.711 331.441 134.148 331.154 148.497 328.912C153.648 328.107 158.461 326.331 163.995 324.856Z" fill="#98F03E"/>
<path d="M117 60.146C106.752 35.7116 116.22 11.7815 139.309 2.82196C159.013 -4.82423 181.997 3.93095 190.964 22.4988C200.813 42.8929 193.995 66.1099 174.889 77.2413C156.387 88.0204 132.049 82.6555 119.988 65.1164C118.98 63.6503 118.134 62.0727 117 60.146Z" fill="#98F03E"/>
<path d="M119.346 122.818C115.176 111.797 117.926 102.808 126.213 95.6314C133.811 89.0518 142.665 87.9021 151.722 92.2375C161.217 96.7828 165.761 104.777 165.583 115.262C165.414 125.233 157.313 134.85 147.525 137.08C135.867 139.736 125.24 134.487 119.346 122.818Z" fill="#98F03E"/>
<path d="M114.623 501.782C123.533 500.852 129.236 504.965 130.472 512.755C131.539 519.483 127.147 526.005 120.508 527.548C113.841 529.097 106.893 524.898 104.77 518.037C102.715 511.394 106.418 505.045 114.623 501.782Z" fill="#4FCD3E"/>
<path d="M99.1477 105.521C79.1291 112.815 66.3211 106.149 61.3557 87.6985C57.6966 74.1027 64.4681 63.3027 77.6568 58.897C92.9657 53.7829 104.367 60.3211 110.781 74.7762C116.465 87.588 110.019 96.7806 99.1477 105.521Z" fill="#6FC319"/>
<path d="M438.874 226.412C434.079 228.381 430.907 226.58 429.358 222.649C428.049 219.327 428.696 215.938 432.405 214.056C435.727 212.37 438.758 213.23 440.902 215.941C443.897 219.726 443.017 223.283 438.874 226.412Z" fill="black"/>
<path d="M336.456 467.798C342.28 472.626 345.468 477.767 345.265 483.552C344.857 495.224 338.303 503.454 325.323 504.076C312.176 504.705 304.94 497.371 304.171 485.25C303.401 473.118 309.323 465.495 322.891 464.66C326.96 464.41 331.176 466.19 336.456 467.798Z" fill="#4FCD3E"/>
<path d="M311.454 400.046C317.635 387.829 321.398 374.779 322.51 361.694C323.198 353.6 322.747 344.231 321.411 336.508C271.597 392.882 239.82 418.763 182.336 455.695C191.602 459.196 202.855 461.361 213.164 461.561C226.104 461.81 239.289 459.383 251.911 454.427C264.533 449.471 276.325 442.091 286.564 432.74C296.803 423.389 305.273 412.263 311.454 400.046Z" fill="#98F03E"/>
<rect x="520.525" y="219.32" width="590.656" height="133.393" rx="8" transform="rotate(0.476648 520.525 219.32)" fill="#392663"/>
<path d="M1000.89 315.095L1021.2 262.773C1022.06 260.546 1021.89 258.049 1020.72 255.966L1007.64 232.636C1006.6 230.781 1006.34 228.587 1006.92 226.541L1022.23 172.594C1023.03 169.764 1025.32 167.602 1028.19 166.967L1114.46 147.885C1116.6 147.412 1118.85 147.838 1120.66 149.063L1172.96 184.316C1176.61 186.778 1177.59 191.729 1175.14 195.392L1150.5 232.298C1148.66 235.054 1148.71 238.66 1150.63 241.364L1164.31 260.676C1165.74 262.693 1166.15 265.258 1165.43 267.624L1141.68 345.878C1140.73 349.004 1137.97 351.239 1134.72 351.523L1068.34 357.324C1067.39 357.407 1066.44 357.319 1065.52 357.066L1007.56 341.072C1004.34 340.183 1002.01 337.385 1001.72 334.057L1000.38 318.686C1000.27 317.465 1000.45 316.237 1000.89 315.095Z" fill="#392663"/>
<path d="M667.684 269.747L683.656 329.326C684.464 332.342 686.954 334.612 690.032 335.139L771.557 349.11C773.647 349.468 775.794 348.982 777.525 347.758L786.308 341.552C788.411 340.066 789.67 337.659 789.691 335.085L790.236 269.632C790.255 267.295 789.252 265.066 787.489 263.532L777.905 255.186C776.457 253.926 775.633 252.095 775.649 250.175C775.679 246.546 778.646 243.628 782.275 243.658L784.221 243.674C787.885 243.705 791.101 241.243 792.027 237.699L806.979 180.519C807.455 178.699 807.274 176.768 806.467 175.068L800.803 163.123C799.489 160.352 796.708 158.576 793.641 158.551L715.939 157.904C713.771 157.886 712 159.629 711.981 161.797C711.956 164.867 708.573 166.721 705.971 165.089L702.397 162.848C701.167 162.077 699.709 161.755 698.268 161.938L680.881 164.145C677.087 164.626 674.165 167.725 673.907 171.54L667.43 267.135C667.37 268.014 667.456 268.896 667.684 269.747Z" fill="#392663"/>
<path d="M767.095 323.598L700.161 313.766C697.067 313.311 694.521 311.095 693.645 308.093L679.013 257.972C678.663 256.775 678.599 255.512 678.824 254.286L680.501 245.152L682.159 237.644C682.387 236.612 682.816 235.636 683.423 234.772L698.357 213.503C700.119 210.993 703.997 211.608 704.896 214.54C705.807 217.511 709.761 218.089 711.485 215.504L723.051 198.162C724.441 196.077 726.727 194.765 729.227 194.615L781.181 191.497C785.806 191.219 789.698 194.916 789.66 199.549L789.614 205.054C789.605 206.126 789.381 207.186 788.954 208.171L781.874 224.493C780.1 228.582 775.326 230.433 771.26 228.608L743.29 216.059C739.311 214.274 734.635 216.004 732.777 219.95L722.005 242.826C719.8 247.509 722.554 253.021 727.623 254.069L755.527 259.836C759.121 260.579 760.486 264.991 757.94 267.633C756.762 268.856 755.012 269.342 753.372 268.9L728.856 262.296C723.438 260.836 718.239 265.263 718.818 270.845L721.053 292.412C721.511 296.835 725.488 300.036 729.906 299.537L766.614 295.398C770.173 294.996 773.565 297.009 774.918 300.326L777.1 305.676C777.699 307.143 777.848 308.755 777.529 310.307L776.094 317.293C775.241 321.448 771.292 324.215 767.095 323.598Z" fill="#B3B3B3"/>
<path d="M769.212 307.522L704.074 302.028C700.877 301.758 698.149 299.604 697.147 296.555L681.005 247.461C680.604 246.239 680.502 244.939 680.71 243.669L689.402 190.613C690.039 186.72 693.419 183.874 697.363 183.906L704.021 183.962C706.494 183.982 708.669 185.604 709.394 187.969C710.754 192.402 716.57 193.418 719.351 189.708L721.138 187.325C722.63 185.335 725.045 184.258 727.522 184.478L780.149 189.153C785.321 189.612 788.692 194.802 787.009 199.714L781.155 216.802C779.702 221.042 775.051 223.261 770.841 221.724L740.077 210.484C736.237 209.082 731.957 210.8 730.153 214.468L728.785 217.249C726.184 222.539 730.003 228.73 735.898 228.779L755.877 228.946C760.295 228.982 763.847 232.594 763.81 237.012L763.678 252.915C763.638 257.749 759.352 261.443 754.565 260.77L734.262 257.917C728.761 257.144 724.165 262.076 725.325 267.509L725.859 270.01C726.718 274.035 730.49 276.751 734.579 276.29L769.148 272.391C773.918 271.853 778.084 275.607 778.044 280.407L777.884 299.617C777.846 304.274 773.853 307.914 769.212 307.522Z" fill="#EDEDED"/>
<path d="M1085.64 202.079L1123.91 196.267C1128.47 195.574 1132.68 198.879 1133.08 203.48L1133.39 207.063C1133.5 208.343 1133.3 209.632 1132.81 210.819L1123.37 233.645C1121.36 238.501 1115.29 240.133 1111.11 236.94L1086.42 218.062C1084.58 216.651 1082.21 216.112 1079.94 216.583L1076 217.401C1073.15 217.991 1070.85 220.079 1069.98 222.855L1061.64 249.632C1060.37 253.709 1062.53 258.064 1066.54 259.527L1121.84 279.687C1125.28 280.943 1127.43 284.384 1127.05 288.033L1123.99 317.376C1123.93 317.952 1123.81 318.52 1123.62 319.07L1121.73 324.774C1120.79 327.58 1118.39 329.642 1115.48 330.137L1065.48 338.627C1064.32 338.824 1063.13 338.763 1062 338.448L1021.52 327.209C1017.94 326.214 1015.51 322.883 1015.67 319.169L1015.86 314.379C1015.93 312.802 1016.46 311.279 1017.39 310.003L1025.66 298.636C1028.29 295.018 1033.38 294.263 1036.95 296.961L1063.57 317.082C1066.51 319.303 1070.59 319.231 1073.44 316.908L1078.33 312.936C1079.82 311.725 1080.82 310.019 1081.16 308.13L1084.82 287.564C1085.41 284.225 1083.84 280.874 1080.88 279.202L1026.7 248.516C1024.41 247.218 1022.9 244.85 1022.68 242.226C1022.55 240.738 1022.83 239.23 1023.51 237.898L1032.19 220.783C1033.17 218.836 1034.91 217.378 1037 216.744L1084.52 202.333C1084.89 202.221 1085.26 202.137 1085.64 202.079Z" fill="#B3B3B3"/>
<path d="M1091.07 178.17L1125.83 191.796C1130 193.432 1132.01 198.175 1130.29 202.313L1121.02 224.628C1119.06 229.35 1113.23 231.044 1109.05 228.112L1086.42 212.267C1084.32 210.798 1081.65 210.422 1079.22 211.256L1071.85 213.795C1069.45 214.623 1067.58 216.545 1066.82 218.972L1065.05 224.637C1063.78 228.708 1065.93 233.061 1069.93 234.533L1128.21 255.963C1131.82 257.29 1133.98 260.998 1133.34 264.792L1125.39 312.313C1124.86 315.47 1122.5 318.007 1119.39 318.765L1067.4 331.437C1065.72 331.846 1063.96 331.701 1062.37 331.024L1023.2 314.329C1019.19 312.62 1017.29 308.012 1018.92 303.97L1029.95 276.715C1031.92 271.836 1037.99 270.159 1042.19 273.333L1066.98 292.073C1069.92 294.294 1074 294.222 1076.85 291.899L1082.53 287.283C1083.53 286.473 1084.31 285.435 1084.82 284.257L1085.88 281.816C1087.52 278.029 1086.02 273.616 1082.4 271.626L1027.84 241.593C1024.46 239.734 1022.89 235.729 1024.1 232.069L1035.83 196.663C1036.65 194.195 1038.62 192.278 1041.11 191.523L1085.83 177.962C1087.55 177.44 1089.39 177.514 1091.07 178.17Z" fill="#EDEDED"/>
<path d="M868.068 144.375L788.266 165.665C785.297 166.458 783.044 168.88 782.469 171.898L774.852 211.885C774.731 212.516 774.688 213.159 774.721 213.8L781.467 342.821C781.697 347.204 785.413 350.583 789.798 350.396L846.444 347.977C850.119 347.82 853.213 345.178 853.944 341.573L854.374 339.448C855.808 332.374 865.136 330.666 868.983 336.772L869.275 337.235C871.568 340.873 876.326 342.048 880.049 339.895L926.982 312.75C928.728 311.741 930.028 310.109 930.622 308.183L933.737 298.08C934.662 295.082 933.748 291.82 931.401 289.738L910.705 271.377C906.971 268.065 907.149 262.18 911.076 259.099L913.394 257.28C915.006 256.015 916.072 254.18 916.37 252.152L926.116 186.017C926.563 182.985 925.239 179.965 922.706 178.239L874.634 145.493C872.712 144.183 870.315 143.775 868.068 144.375Z" fill="#392663"/>
<path d="M897.907 260.307L902.677 242.36C903.525 239.169 902.325 235.784 899.657 233.84L869.406 211.793C864.495 208.214 857.542 211.202 856.761 217.23L852.502 250.076C852.122 253.008 850.155 255.492 847.388 256.534L838.105 260.03C834.421 261.417 830.277 259.919 828.331 256.498L802.536 211.137C799.276 205.404 790.627 206.915 789.503 213.414C789.417 213.915 789.385 214.425 789.408 214.933L794.123 317.78C794.33 322.289 798.224 325.735 802.725 325.39L833.073 323.07C837.033 322.767 840.171 319.604 840.444 315.642L841.271 303.616C841.784 296.147 851.359 293.413 855.74 299.485L871.496 321.326C873.742 324.44 877.884 325.519 881.364 323.896L908.54 311.225C911.012 310.073 912.726 307.741 913.089 305.039L913.641 300.923C914.033 298.002 912.787 295.103 910.4 293.377L891.854 279.964C887.488 276.807 887.428 270.324 891.735 267.087L894.982 264.647C896.416 263.569 897.446 262.041 897.907 260.307Z" fill="#B3B3B3"/>
<path d="M905.649 210.604C908.049 212.515 909.144 215.63 908.469 218.622L902.84 243.575C902.433 245.381 901.412 246.989 899.952 248.126L888.364 257.154C884.56 260.117 884.222 265.745 887.643 269.142L907.268 288.626C910.919 292.252 910.248 298.332 905.894 301.073L884.045 314.829C880.589 317.005 876.049 316.229 873.513 313.029L851.505 285.262C846.817 279.347 837.299 282.617 837.236 290.164L837.113 304.934C837.081 308.803 834.284 312.094 830.471 312.751L808.796 316.485C804.092 317.295 799.73 313.832 799.452 309.067L793.148 200.966C792.912 196.909 795.755 193.319 799.758 192.619L864.543 181.306C866.798 180.912 869.113 181.503 870.903 182.929L905.649 210.604ZM836.523 204.924C832.839 205.966 830.41 209.472 830.728 213.287L832.987 240.388C833.394 245.277 838.066 248.651 842.835 247.501L854.131 244.776C857.122 244.055 859.435 241.681 860.078 238.672L864.101 219.862C864.947 215.902 862.701 211.934 858.871 210.621L842.021 204.848C840.482 204.32 838.818 204.275 837.251 204.718L836.523 204.924Z" fill="#EDEDED"/>
<path d="M543.06 189.204L600.922 169.195L619.596 164.078C621.327 163.603 623.167 163.725 624.821 164.423L642.989 172.09C644.654 172.792 645.731 174.431 645.716 176.238C645.693 179.035 648.218 181.164 650.97 180.668L653.785 180.161C655.428 179.865 657.123 180.181 658.55 181.049L694.208 202.758C696.942 204.423 698.421 207.557 697.967 210.725L685.682 296.521C685.468 298.018 684.834 299.423 683.854 300.574L652.975 336.836C651.591 338.461 649.615 339.466 647.486 339.627L573.446 345.212C569.624 345.501 566.135 343.038 565.126 339.341L551.944 291.022C551.494 289.372 552.033 287.61 553.331 286.495C555.436 284.687 555.379 281.411 553.213 279.676L550.165 277.236C548.819 276.157 547.875 274.656 547.486 272.975L532.329 207.361C531.849 205.281 532.219 203.096 533.358 201.291L538.909 192.495C539.879 190.959 541.343 189.798 543.06 189.204Z" fill="#392663"/>
<path d="M567.733 271.406L551.159 219.667C550.621 217.988 550.837 216.158 551.752 214.65C553.687 211.46 558.01 210.745 560.87 213.141L587.877 235.767C589.183 236.861 590.106 238.344 590.511 239.999L601.605 285.377C602.861 290.511 608.662 293.038 613.276 290.462L633.457 279.194C635.968 277.792 637.533 275.151 637.557 272.276L637.932 227.235C637.973 222.278 642.465 218.552 647.343 219.427L670.255 223.535C673.753 224.163 676.418 227.023 676.797 230.557L681.139 271.074C681.248 272.088 681.161 273.114 680.885 274.095L678.339 283.134C678.048 284.166 677.553 285.129 676.882 285.966L652.145 316.851C650.817 318.509 648.883 319.571 646.771 319.802L589.284 326.091C585.169 326.542 581.39 323.779 580.572 319.721L574.534 289.799C574.222 288.249 574.409 286.64 575.07 285.204L576.103 282.958C577.621 279.659 575.614 275.816 572.04 275.175C570.017 274.813 568.36 273.363 567.733 271.406Z" fill="#B3B3B3"/>
<path d="M627.481 192.676C629.891 193.663 631.456 196.018 631.435 198.622C631.394 203.448 636.527 206.563 640.789 204.3L643.634 202.789C645.805 201.637 648.385 201.546 650.632 202.543L676.724 214.126C679.636 215.419 681.504 218.317 681.477 221.504L681.083 268.916C681.068 270.721 680.443 272.468 679.31 273.873L652.706 306.849C651.441 308.417 649.631 309.45 647.637 309.742L594.985 317.436C590.737 318.056 586.756 315.213 585.965 310.994L581.607 287.744C581.299 286.105 581.512 284.411 582.215 282.899L584.033 278.986C586.034 274.679 583.864 269.587 579.37 268.047L577.916 267.549C575.525 266.73 573.662 264.829 572.891 262.422L558.045 216.081C556.725 211.961 558.92 207.539 562.999 206.097L612.341 188.667C614.193 188.012 616.221 188.062 618.039 188.807L627.481 192.676ZM613.24 273.479C613.971 279.152 620.245 282.246 625.191 279.375L642.957 269.059C645.402 267.64 646.916 265.035 646.939 262.207L647.151 236.74C647.184 232.849 644.412 229.5 640.584 228.803L617.449 224.593C612.122 223.624 607.39 228.116 608.083 233.487L613.24 273.479Z" fill="#EDEDED"/>
<path d="M900.242 264.61L916.236 324.377C917.043 327.393 919.533 329.665 922.611 330.193L1004.13 344.185C1006.22 344.545 1008.37 344.057 1010.11 342.83L1018.89 336.611C1020.99 335.125 1022.25 332.72 1022.27 330.148L1022.82 264.562C1022.83 262.227 1021.83 260.001 1020.07 258.466L1010.49 250.103C1009.04 248.84 1008.21 247.007 1008.23 245.085C1008.26 241.448 1011.23 238.525 1014.87 238.555L1016.8 238.571C1020.46 238.601 1023.68 236.138 1024.61 232.592L1039.6 175.164C1040.05 173.428 1039.91 171.59 1039.19 169.946L1033.84 157.679C1032.52 154.639 1029.45 152.732 1026.14 152.884L949.329 156.423C947.933 156.487 946.714 157.389 946.245 158.706L945.92 159.619C945.248 161.505 942.87 162.096 941.393 160.743C940.883 160.276 940.218 160.015 939.526 160.009L912.641 159.785C908.349 159.75 904.793 163.109 904.584 167.397L899.98 262.154C899.939 262.981 900.028 263.81 900.242 264.61Z" fill="#392663"/>
<path d="M999.671 318.676L932.738 308.844C929.643 308.389 927.097 306.173 926.221 303.171L911.589 253.05C911.24 251.853 911.175 250.591 911.4 249.364L913.077 240.231L914.735 232.722C914.963 231.69 915.392 230.714 915.999 229.85L930.934 208.581C932.696 206.071 936.573 206.686 937.472 209.618C938.384 212.589 942.337 213.167 944.061 210.582L955.627 193.24C957.017 191.156 959.303 189.843 961.803 189.693L1013.76 186.575C1018.38 186.297 1022.27 189.994 1022.24 194.627L1022.19 200.132C1022.18 201.205 1021.96 202.265 1021.53 203.249L1014.45 219.571C1012.68 223.66 1007.9 225.511 1003.84 223.686L975.866 211.137C971.887 209.352 967.211 211.082 965.353 215.028L954.581 237.904C952.376 242.587 955.131 248.099 960.199 249.147L988.103 254.914C991.697 255.657 993.062 260.069 990.516 262.711C989.338 263.935 987.588 264.42 985.948 263.978L961.432 257.374C956.014 255.914 950.816 260.341 951.394 265.923L953.629 287.49C954.087 291.913 958.064 295.114 962.483 294.616L999.19 290.476C1002.75 290.074 1006.14 292.087 1007.49 295.404L1009.68 300.754C1010.27 302.221 1010.42 303.833 1010.11 305.385L1008.67 312.371C1007.82 316.526 1003.87 319.293 999.671 318.676Z" fill="#B3B3B3"/>
<path d="M1001.79 302.604L936.649 297.11C933.451 296.84 930.724 294.686 929.721 291.637L913.58 242.543C913.178 241.321 913.077 240.021 913.285 238.751L921.976 185.695C922.613 181.802 925.993 178.956 929.937 178.988L936.595 179.044C939.068 179.064 941.243 180.686 941.968 183.051C943.328 187.484 949.144 188.5 951.925 184.79L953.712 182.407C955.204 180.417 957.619 179.34 960.097 179.56L1012.72 184.235C1017.9 184.694 1021.27 189.884 1019.58 194.796L1013.73 211.884C1012.28 216.124 1007.63 218.344 1003.42 216.806L972.651 205.566C968.811 204.164 964.531 205.882 962.727 209.55L961.36 212.331C958.758 217.621 962.577 223.812 968.472 223.861L988.451 224.028C992.869 224.064 996.421 227.676 996.384 232.094L996.252 247.997C996.212 252.831 991.926 256.525 987.139 255.852L966.837 252.999C961.335 252.226 956.739 257.158 957.899 262.591L958.433 265.092C959.293 269.117 963.065 271.833 967.154 271.372L1001.72 267.473C1006.49 266.935 1010.66 270.689 1010.62 275.489L1010.46 294.699C1010.42 299.356 1006.43 302.996 1001.79 302.604Z" fill="#EDEDED"/>
<path d="M480.458 231.196L503.684 330.882C504.479 334.295 507.404 336.794 510.9 337.046L560.414 340.619C563.08 340.812 565.666 339.66 567.307 337.549L572.87 330.389C574.293 328.557 574.851 326.198 574.4 323.923L552.284 212.433C552.19 211.96 551.777 211.619 551.296 211.615C550.515 211.608 550.034 210.761 550.427 210.087L552.01 207.376C552.11 207.205 552.192 207.024 552.254 206.836L574.208 140.431C575.599 136.223 573.304 131.686 569.09 130.313L559.077 127.052C557.193 126.438 555.149 126.545 553.34 127.352L470.033 164.51C466.596 166.043 464.692 169.765 465.461 173.45L475.205 220.142C475.524 221.672 476.868 222.773 478.431 222.786C480.998 222.808 482.573 225.608 481.258 227.813L480.888 228.433C480.393 229.264 480.239 230.254 480.458 231.196Z" fill="#392663"/>
<path d="M525.437 326.864L551.31 327.079C554.071 327.102 556.649 325.7 558.129 323.37L559.607 321.044C560.739 319.262 561.121 317.105 560.669 315.042L544.592 241.646C544.056 239.202 542.408 237.149 540.138 236.098L513.744 223.88C510.134 222.208 505.845 223.444 503.676 226.779L503.451 227.126C502.347 228.823 501.928 230.876 502.279 232.87L517.624 320.248C518.292 324.049 521.578 326.832 525.437 326.864Z" fill="#B3B3B3"/>
<path d="M500.316 208.535L494.13 184.773C493.547 182.532 493.963 180.149 495.272 178.238L497.318 175.249C498.419 173.642 500.068 172.491 501.956 172.013L533.446 164.04C538.789 162.687 543.867 167.015 543.378 172.505L540.449 205.408C540.319 206.871 539.788 208.269 538.916 209.45L537.432 211.461C535.909 213.523 533.492 214.731 530.929 214.71L507.992 214.519C504.374 214.489 501.228 212.035 500.316 208.535Z" fill="#B3B3B3"/>
<path d="M531.091 318.075L552.179 318.25C557.048 318.291 560.823 314.01 560.175 309.185L550.164 234.692C549.706 231.279 547.115 228.543 543.732 227.899L518.767 223.145C513.27 222.098 508.424 226.875 509.392 232.387L523.278 311.459C523.946 315.26 527.232 318.043 531.091 318.075Z" fill="#EDEDED"/>
<path d="M505.971 199.745L500.658 179.339C499.636 175.414 501.713 171.346 505.491 169.871L536.79 157.652C542.6 155.384 548.655 160.342 547.579 166.486L541.833 199.279C541.158 203.131 537.797 205.931 533.886 205.898L513.646 205.73C510.029 205.7 506.882 203.246 505.971 199.745Z" fill="#EDEDED"/>
<path d="M426.949 146.349L364.611 156.911C362.576 157.256 360.754 158.373 359.524 160.03L336.643 190.845C334.973 193.095 334.601 196.055 335.664 198.648L402.461 361.625C404.012 365.408 408.164 367.413 412.091 366.275L514.777 336.517C517.339 335.774 519.363 333.803 520.173 331.261L530.136 299.976C530.579 298.583 530.633 297.096 530.291 295.675L514.717 231.002C513.442 225.705 507.36 223.205 502.728 226.074L463.743 250.215C458.911 253.208 452.586 250.347 451.642 244.742L436.174 152.908C435.439 148.548 431.308 145.611 426.949 146.349Z" fill="#392663"/>
<path d="M408.611 336.454L360.609 198.425C359.911 196.417 360.04 194.213 360.97 192.3L362.567 189.013C363.965 186.136 366.942 184.369 370.137 184.518L409.729 186.373C413.286 186.539 416.305 189.037 417.135 192.5L437.895 279.14C439.085 284.105 444.557 286.7 449.154 284.479L489.356 265.061C493.791 262.918 499.091 265.255 500.5 269.975L508.459 296.617C509.026 298.515 508.869 300.555 508.018 302.344L505.471 307.697C504.565 309.602 502.943 311.071 500.958 311.786L418.879 341.352C414.689 342.861 410.074 340.659 408.611 336.454Z" fill="#B3B3B3"/>
<path d="M413.928 325.392L367.991 193.302C366.349 188.58 369.391 183.526 374.333 182.767L413.772 176.71C417.886 176.078 421.797 178.706 422.766 182.753L443.211 268.078C444.401 273.043 449.874 275.638 454.471 273.418L493.1 254.758C498.027 252.378 503.835 255.536 504.517 260.964L508.574 293.255C509.041 296.969 506.87 300.51 503.348 301.779L424.195 330.29C420.006 331.8 415.39 329.597 413.928 325.392Z" fill="#EDEDED"/>
<path d="M1159.95 315.351L1102.34 329.67C1099.51 330.373 1097.28 332.561 1096.53 335.38L1086.45 373.331C1085.81 375.761 1086.34 378.353 1087.9 380.329L1098.09 393.298C1100.2 395.979 1100.37 399.702 1098.53 402.57L1097.74 403.798C1097.19 404.655 1096.8 405.611 1096.61 406.612L1088.14 450.562C1087.96 451.482 1087.95 452.427 1088.1 453.352L1090.23 466.523C1090.73 469.624 1093 472.145 1096.03 472.967L1147.44 486.914C1148.66 487.247 1149.96 487.283 1151.2 487.017L1204.24 475.699C1206.51 475.216 1208.45 473.774 1209.57 471.747L1213.84 464.025C1214.51 462.827 1214.85 461.479 1214.84 460.109L1214.47 393.679C1214.46 391.419 1213.49 389.271 1211.81 387.764L1208.3 384.625C1205.95 382.516 1205.06 379.219 1206.03 376.21L1217.14 341.762C1217.69 340.049 1217.65 338.2 1217.02 336.513L1213.91 328.182C1212.92 325.525 1210.6 323.59 1207.81 323.097L1163.27 315.236C1162.16 315.042 1161.03 315.081 1159.95 315.351Z" fill="#392663"/>
<path d="M1149.56 348.653L1178 342.18C1182.5 341.154 1186.93 344.144 1187.67 348.703L1187.79 349.481C1188 350.749 1187.9 352.049 1187.49 353.269L1182.06 369.7C1180.41 374.69 1174.48 376.761 1170.08 373.882L1151.62 361.791C1149.67 360.519 1147.27 360.154 1145.04 360.79L1143.55 361.216C1140.75 362.012 1138.61 364.263 1137.95 367.095L1133.41 386.56C1132.44 390.719 1134.91 394.906 1139.02 396.072L1181.68 408.178C1185.21 409.179 1187.6 412.454 1187.49 416.121L1186.8 438.306C1186.79 438.885 1186.71 439.46 1186.56 440.022L1185.66 443.589C1184.94 446.455 1182.69 448.687 1179.82 449.394L1141.68 458.78C1140.54 459.061 1139.35 459.086 1138.19 458.855L1106.81 452.568C1103.17 451.837 1100.5 448.692 1100.39 444.977L1100.32 442.89C1100.27 441.312 1100.69 439.755 1101.52 438.414L1106.35 430.648C1108.71 426.847 1113.73 425.722 1117.49 428.153L1137.5 441.097C1140.59 443.097 1144.65 442.728 1147.33 440.202L1149.66 438.012C1151.05 436.695 1151.93 434.92 1152.13 433.011L1153.67 418.094C1154.02 414.72 1152.2 411.493 1149.14 410.041L1105.13 389.203C1103.21 388.296 1101.86 386.502 1101.53 384.408C1101.33 383.221 1101.48 382.004 1101.94 380.894L1107.6 367.363C1108.44 365.35 1110.07 363.768 1112.11 362.984L1148.46 348.987C1148.82 348.85 1149.19 348.738 1149.56 348.653Z" fill="#14AADB"/>
<path d="M1152.91 329.433L1179.37 337.633C1183.65 338.96 1186.01 343.544 1184.59 347.796L1179.64 362.721C1178.03 367.573 1172.34 369.689 1167.95 367.07L1151.36 357.178C1149.16 355.866 1146.47 355.686 1144.11 356.695L1139.87 358.514C1137.53 359.516 1135.81 361.569 1135.23 364.045L1134.68 366.406C1133.7 370.559 1136.16 374.743 1140.26 375.919L1185.31 388.837C1189.01 389.897 1191.43 393.438 1191.07 397.268L1187.72 433.304C1187.42 436.49 1185.25 439.193 1182.21 440.176L1142.95 452.845C1141.31 453.375 1139.54 453.359 1137.9 452.8L1107.64 442.442C1103.52 441.029 1101.28 436.573 1102.62 432.422L1108.71 413.494C1110.32 408.484 1116.25 406.369 1120.67 409.227L1138.76 420.928C1141.85 422.928 1145.91 422.559 1148.59 420.033L1151.66 417.142C1152.59 416.262 1153.3 415.169 1153.73 413.957L1153.82 413.685C1155.18 409.789 1153.35 405.498 1149.6 403.777L1106.82 384.15C1103.31 382.543 1101.46 378.663 1102.4 374.924L1109.17 348.063C1109.8 345.542 1111.62 343.487 1114.05 342.552L1147.67 329.609C1149.35 328.963 1151.19 328.901 1152.91 329.433Z" fill="#24BFF2"/>
<path d="M1031.97 333.238L993.88 375.861C992.287 377.643 991.575 380.044 991.938 382.406L1003.45 457.339C1003.91 460.389 1006.09 462.898 1009.05 463.786L1057.94 478.475C1059.77 479.026 1061.75 478.9 1063.5 478.121L1101.3 461.276C1102.59 460.703 1103.7 459.803 1104.52 458.664L1109.78 451.418C1110.28 450.719 1110.67 449.943 1110.93 449.12L1129.25 390.836C1130.05 388.267 1129.51 385.463 1127.81 383.377L1094.3 342.34C1093.08 340.854 1091.38 339.854 1089.49 339.521L1039.32 330.69C1036.6 330.21 1033.82 331.173 1031.97 333.238Z" fill="#392663"/>
<path d="M1037.56 347.502L1007.12 386.115C1005.63 388.004 1005.07 390.462 1005.6 392.809L1014.43 432.447C1015.02 435.062 1016.87 437.212 1019.37 438.173L1054.03 451.502C1055.88 452.21 1057.92 452.212 1059.76 451.509L1095.03 438.046C1096.28 437.568 1097.36 436.731 1098.14 435.641C1100.63 432.171 1099.36 427.297 1095.5 425.48L1075.38 416.018L1060.64 409.667C1058.5 408.743 1056.87 406.929 1056.17 404.7L1052.31 392.311C1051.74 390.489 1051.84 388.524 1052.6 386.771L1061.12 366.939C1062.24 364.331 1061.9 361.323 1060.22 359.037L1051.55 347.259C1049.45 344.41 1045.73 343.277 1042.4 344.472L1041.14 344.924C1039.73 345.431 1038.49 346.324 1037.56 347.502Z" fill="#D4C032"/>
<path d="M1048.17 341.748L1092.08 350.856C1092.23 350.886 1092.36 350.974 1092.45 351.1L1116.2 385.722C1116.3 385.869 1116.33 386.055 1116.28 386.226L1103.35 429.012C1103.3 429.187 1103.17 429.328 1103 429.393L1065.18 443.831C1065.04 443.883 1064.89 443.883 1064.76 443.831L1025.54 428.751C1025.35 428.68 1025.22 428.521 1025.17 428.328L1015.17 383.44C1015.13 383.267 1015.17 383.085 1015.28 382.946L1047.58 341.961C1047.72 341.785 1047.95 341.702 1048.17 341.748ZM1074.57 367.775L1053.53 368.966C1053.29 368.979 1053.09 369.127 1053.01 369.343L1045.75 388.134C1045.71 388.235 1045.7 388.346 1045.72 388.453L1050.16 412.533C1050.2 412.734 1050.34 412.902 1050.53 412.976L1063.6 418.003C1063.73 418.051 1063.87 418.055 1063.99 418.014L1079.06 413.222C1079.25 413.161 1079.4 413.004 1079.45 412.808L1085.66 388.816C1085.7 388.676 1085.68 388.527 1085.62 388.398L1075.13 368.093C1075.02 367.887 1074.81 367.762 1074.57 367.775Z" fill="#FEE748"/>
<path d="M991.893 325.607L946.211 329.597C943.202 329.86 940.597 331.796 939.477 334.601L926.603 366.85C925.779 368.915 925.851 371.229 926.802 373.238L933.159 386.672C934.465 389.432 934.086 392.695 932.182 395.082L931.485 395.955C930.892 396.699 930.436 397.543 930.139 398.448L917.516 436.893C917.258 437.677 917.124 438.497 917.117 439.322L917.015 451.484C916.991 454.471 918.632 457.223 921.272 458.621L958.857 478.52C960.127 479.193 961.555 479.511 962.991 479.441L1004.72 477.398C1007.19 477.277 1009.47 476.015 1010.89 473.983L1014.84 468.316C1015.55 467.293 1016.02 466.118 1016.19 464.885L1024.9 404.639C1025.19 402.636 1024.71 400.598 1023.56 398.935L1021.25 395.613C1019.65 393.295 1019.38 390.303 1020.55 387.736L1034.03 358.145C1034.69 356.699 1034.91 355.091 1034.65 353.523L1033.36 345.702C1032.9 342.961 1031.06 340.651 1028.49 339.6L995.614 326.171C994.436 325.69 993.16 325.497 991.893 325.607Z" fill="#392663"/>
<path d="M985.634 355.482L1011.26 354.064C1015.73 353.817 1019.48 357.396 1019.45 361.874C1019.44 363.12 1019.13 364.345 1018.54 365.446L1011.77 378.213C1009.3 382.855 1003.11 383.901 999.257 380.326L985.68 367.721C983.979 366.142 981.676 365.379 979.368 365.631L978.789 365.695C975.899 366.011 973.408 367.87 972.282 370.551L965.774 386.054C964.121 389.992 965.852 394.533 969.706 396.372L1004.57 413.004C1007.89 414.584 1009.7 418.214 1008.97 421.81L1005.14 440.746C1005.03 441.314 1004.85 441.868 1004.62 442.397L1003.5 444.922C1002.3 447.626 999.715 449.45 996.766 449.665L962.081 452.192C960.909 452.277 959.732 452.103 958.635 451.682L932.429 441.629C928.958 440.298 926.862 436.751 927.369 433.068L927.509 432.055C927.724 430.491 928.398 429.026 929.444 427.844L934.223 422.446C937.189 419.095 942.327 418.829 945.623 421.855L960.415 435.435C963.128 437.925 967.191 438.242 970.257 436.202L971.9 435.109C973.498 434.046 974.661 432.443 975.175 430.594L978.575 418.381C979.485 415.113 978.235 411.627 975.457 409.682L939.939 384.815C938.372 383.718 937.446 381.92 937.462 380.007C937.471 378.922 937.783 377.862 938.364 376.945L945.263 366.054C946.431 364.211 948.301 362.925 950.44 362.493L984.495 355.627C984.871 355.552 985.251 355.503 985.634 355.482Z" fill="#3BC8AC"/>
<path d="M991.707 339.032L1013.03 349.841C1017.03 351.867 1018.59 356.781 1016.48 360.737L1010.65 371.686C1008.25 376.199 1002.28 377.331 998.395 374.012L986.194 363.602C984.246 361.94 981.619 361.311 979.129 361.91L975.854 362.698C973.381 363.294 971.339 365.029 970.353 367.372L969.948 368.333C968.293 372.264 970.013 376.802 973.857 378.649L1010.69 396.344C1014.16 398.01 1015.95 401.907 1014.96 405.622L1006.83 436.026C1006 439.117 1003.41 441.418 1000.24 441.876L964.195 447.088C962.486 447.336 960.743 447.023 959.226 446.198L934.797 432.902C930.967 430.818 929.511 426.05 931.525 422.182L938.976 407.867C941.406 403.198 947.605 402.108 951.482 405.667L964.587 417.699C967.3 420.189 971.363 420.506 974.429 418.466L977.036 416.731C978.03 416.07 978.851 415.179 979.428 414.133C981.282 410.774 980.278 406.555 977.107 404.392L942.746 380.951C939.561 378.778 938.379 374.642 939.935 371.114L949.59 349.226C950.639 346.847 952.779 345.127 955.328 344.613L986.51 338.326C988.272 337.971 990.104 338.219 991.707 339.032Z" fill="#63E8CD"/>
<path d="M862.827 331.88L824.695 375.064C823.128 376.839 822.427 379.217 822.782 381.558L834.305 457.546C834.767 460.593 836.939 463.104 839.887 464L888.754 478.856C890.608 479.42 892.604 479.291 894.37 478.494L932.151 461.454C933.436 460.875 934.545 459.966 935.365 458.82L940.639 451.46C941.138 450.763 941.521 449.991 941.775 449.173L960.131 390.067C960.922 387.52 960.391 384.746 958.717 382.671L925.154 341.075C923.943 339.574 922.23 338.561 920.331 338.223L870.227 329.299C867.479 328.81 864.675 329.788 862.827 331.88Z" fill="#392663"/>
<path d="M868.903 343.892L838.466 382.506C836.978 384.394 836.418 386.852 836.941 389.199L845.779 428.838C846.362 431.453 848.215 433.602 850.716 434.564L885.378 447.892C887.22 448.601 889.259 448.603 891.103 447.899L926.37 434.436C927.623 433.958 928.707 433.122 929.488 432.031C931.973 428.561 930.703 423.688 926.841 421.871L906.728 412.409L891.986 406.057C889.842 405.134 888.209 403.32 887.514 401.091L883.653 388.702C883.085 386.88 883.187 384.915 883.941 383.162L892.467 363.33C893.588 360.722 893.243 357.714 891.56 355.428L882.889 343.649C880.792 340.801 877.074 339.668 873.744 340.862L872.483 341.315C871.072 341.821 869.831 342.715 868.903 343.892Z" fill="#D7C12F"/>
<path d="M879.513 338.143L923.423 347.25C923.573 347.281 923.704 347.369 923.79 347.495L947.545 382.116C947.646 382.263 947.675 382.45 947.623 382.621L934.699 425.406C934.647 425.581 934.516 425.722 934.345 425.787L896.522 440.226C896.386 440.278 896.236 440.277 896.1 440.225L856.883 425.146C856.699 425.075 856.562 424.916 856.52 424.723L846.511 379.834C846.472 379.661 846.513 379.479 846.623 379.34L878.929 338.355C879.068 338.179 879.294 338.097 879.513 338.143ZM905.918 364.17L884.871 365.361C884.639 365.374 884.437 365.521 884.353 365.737L877.093 384.528C877.054 384.63 877.044 384.741 877.064 384.847L881.507 408.927C881.545 409.129 881.685 409.297 881.877 409.371L894.949 414.398C895.074 414.445 895.212 414.449 895.339 414.409L910.406 409.617C910.599 409.555 910.747 409.398 910.798 409.202L917.009 385.211C917.045 385.07 917.028 384.921 916.961 384.793L906.476 364.488C906.369 364.281 906.15 364.156 905.918 364.17Z" fill="#FEE748"/>
<path d="M719.57 327.628L682.184 337.527C678.605 338.474 676.144 341.753 676.234 345.453L679.314 473.16C679.418 477.476 682.928 480.931 687.245 480.967L723.804 481.271C726.312 481.292 728.684 480.136 730.212 478.148L733.1 474.393C735.982 470.646 741.466 470.201 744.913 473.434L749.942 478.148C752.146 480.214 755.327 480.863 758.164 479.824L787.986 468.904C789.861 468.217 791.412 466.854 792.333 465.082L798.152 453.89C798.611 453.008 798.901 452.049 799.008 451.061L812.219 328.997C812.77 323.905 808.46 319.614 803.37 320.187L750.709 326.115C747.852 326.437 745.387 328.267 744.253 330.909L744.175 331.089C741.945 336.284 735.175 337.589 731.173 333.595L727.269 329.699C725.254 327.688 722.322 326.9 719.57 327.628Z" fill="#392663"/>
<path d="M681.52 363.175L688.74 448.901C689.087 453.019 692.513 456.195 696.645 456.229L717.497 456.403C720.265 456.426 722.849 455.016 724.327 452.676L727.705 447.328C728.693 445.764 728.948 443.845 728.403 442.076C726.242 435.063 735.738 430.596 739.762 436.734L749.63 451.781C751.547 454.706 755.143 456.046 758.507 455.089L776.485 449.977C778.22 449.484 779.738 448.418 780.791 446.954L786.018 439.687C787.011 438.307 787.538 436.646 787.523 434.945L786.823 355.185C786.792 351.632 784.421 348.526 781.003 347.558L762.068 342.197C758.899 341.3 755.505 342.436 753.515 345.059L749.922 349.796C748.82 351.248 748.248 353.032 748.298 354.854L748.933 377.587C749.167 385.968 737.99 389.018 733.934 381.68L717.91 352.69C716.513 350.163 713.863 348.584 710.975 348.56L694.232 348.421C691.723 348.4 689.35 349.557 687.822 351.547L683.148 357.63C681.934 359.211 681.353 361.188 681.52 363.175Z" fill="#16A5D4"/>
<path d="M689.933 354.63L696.885 437.177C697.231 441.295 700.658 444.471 704.79 444.505L721.022 444.641C725.837 444.681 729.596 440.488 729.034 435.706L727.336 421.28C726.349 412.894 737.341 408.897 741.971 415.958L757.774 440.057C759.692 442.982 763.288 444.322 766.652 443.365L781.943 439.017C785.167 438.101 787.478 435.271 787.732 431.929L794.21 346.737C794.581 341.857 790.524 337.791 785.644 338.152L763.985 339.752C759.721 340.067 756.458 343.68 756.578 347.954L757.078 365.863C757.311 374.244 746.135 377.294 742.079 369.956L727.015 342.703C725.148 339.326 721.138 337.762 717.478 338.985L695.37 346.371C691.869 347.54 689.623 350.952 689.933 354.63Z" fill="#24BFF2"/>
<path d="M806.39 324.113L802.945 329.68C802.149 330.967 801.734 332.453 801.748 333.966L802.175 378.382L792.766 463.263C792.28 467.639 795.422 471.584 799.795 472.091L832.644 475.9C835.397 476.219 838.12 475.09 839.84 472.915L846.277 464.777C847.45 463.293 848.059 461.443 847.998 459.553L845.226 374.629C845.195 373.679 845.333 372.731 845.635 371.83L861.588 324.147C863.499 318.433 858.648 312.736 852.702 313.715L811.894 320.428C809.613 320.804 807.606 322.147 806.39 324.113Z" fill="#392663"/>
<path d="M813.862 451.511L830.918 452.495C833.35 452.635 835.714 451.66 837.339 449.845L837.613 449.539C839.022 447.966 839.751 445.899 839.643 443.791L836.961 391.719C836.833 389.22 835.542 386.925 833.474 385.517L817.291 374.499C814.787 372.794 811.409 373.188 809.365 375.424C808.37 376.513 807.803 377.925 807.77 379.399L806.325 443.344C806.228 447.652 809.56 451.263 813.862 451.511Z" fill="#DF3275"/>
<path d="M809.161 360.14L807.808 345.228C807.599 342.922 808.399 340.638 810.002 338.967L810.522 338.425C811.87 337.019 813.685 336.154 815.626 335.991L834.987 334.365C840.478 333.903 844.781 339.003 843.401 344.339L838.385 363.743C838.017 365.165 837.256 366.467 836.203 367.49C834.364 369.275 831.764 370.088 829.239 369.648L815.755 367.298C812.191 366.677 809.488 363.742 809.161 360.14Z" fill="#DF3275"/>
<path d="M820.127 443.699L830.738 445.548C835.534 446.384 839.958 442.778 840.107 437.912L841.638 387.93C841.744 384.488 839.635 381.365 836.403 380.176L823.751 375.524C818.498 373.593 812.937 377.514 812.991 383.11L813.5 435.895C813.538 439.754 816.325 443.036 820.127 443.699Z" fill="#FC5595"/>
<path d="M814.218 354.554L813.179 343.094C812.812 339.055 815.526 335.381 819.494 334.543L837.372 330.77C843.475 329.482 848.638 335.363 846.572 341.248L840.561 358.368C839.266 362.058 835.492 364.27 831.64 363.599L820.812 361.712C817.249 361.091 814.545 358.156 814.218 354.554Z" fill="#FC5595"/>
<path d="M591.234 387.553L602.04 339.612C602.81 336.193 605.717 333.674 609.211 333.396L626.479 332.026C628.42 331.872 630.265 332.892 631.168 334.618C632.37 336.919 635.17 337.867 637.523 336.77L641.153 335.079C642.4 334.498 643.775 334.248 645.145 334.354L700.192 338.584C705.393 338.984 708.826 344.174 707.159 349.117L692.76 391.814C691.88 394.424 688.785 395.516 686.461 394.037C683.65 392.247 679.967 394.248 679.939 397.581L679.915 400.533C679.898 402.554 680.921 404.443 682.624 405.533L692.245 411.693C694.562 413.176 695.954 415.746 695.931 418.497L695.642 453.268C695.634 454.227 695.453 455.177 695.109 456.073L689.486 470.696C688.117 474.256 684.426 476.355 680.667 475.71L610.491 463.676C607.208 463.113 604.617 460.575 603.987 457.305L591.183 390.825C590.974 389.743 590.992 388.629 591.234 387.553Z" fill="#392663"/>
<path d="M675.566 452.298L622.193 444.458C619.098 444.003 616.552 441.787 615.676 438.785L603.876 398.366C603.527 397.168 603.462 395.906 603.687 394.679L605.019 387.422L606.336 381.461C606.564 380.43 606.993 379.454 607.6 378.589L619.83 361.172C621.291 359.09 624.508 359.6 625.253 362.032C626.009 364.496 629.288 364.976 630.718 362.832L639.934 349.012C641.324 346.928 643.61 345.615 646.111 345.465L687.066 343.007C691.69 342.73 695.583 346.427 695.545 351.06L695.521 353.887C695.512 354.96 695.287 356.02 694.861 357.004L689.649 369.019C687.875 373.108 683.101 374.959 679.035 373.135L658.32 363.841C654.341 362.055 649.665 363.786 647.807 367.731L640.181 383.926C637.976 388.608 640.731 394.121 645.8 395.168L667.247 399.601C670.227 400.217 671.36 403.876 669.248 406.068C668.271 407.083 666.819 407.485 665.459 407.119L647.043 402.157C641.624 400.698 636.426 405.125 637.005 410.707L638.511 425.25C638.97 429.673 642.947 432.873 647.365 432.375L675.415 429.212C678.975 428.81 682.367 430.823 683.719 434.14L684.983 437.237C685.581 438.704 685.731 440.316 685.412 441.868L684.565 445.993C683.711 450.148 679.763 452.915 675.566 452.298Z" fill="#72C51C"/>
<path d="M677.131 439.025L625.472 434.668C622.274 434.398 619.547 432.243 618.545 429.195L605.543 389.651C605.142 388.429 605.04 387.129 605.248 385.859L612.214 343.338C612.851 339.445 616.231 336.598 620.175 336.631L624.528 336.667C626.58 336.684 628.383 338.029 628.985 339.991C630.112 343.668 634.936 344.51 637.243 341.433L638.725 339.456C639.963 337.806 641.966 336.913 644.02 337.096L685.934 340.819C691.107 341.278 694.478 346.467 692.795 351.38L688.955 362.588C687.502 366.828 682.851 369.047 678.641 367.509L655.305 358.984C651.624 357.639 647.522 359.286 645.793 362.802C643.3 367.872 646.96 373.806 652.61 373.853L666.173 373.966C670.591 374.002 674.143 377.614 674.106 382.032L674.021 392.3C673.981 397.135 669.695 400.829 664.908 400.156L650.896 398.187C645.708 397.457 641.375 402.108 642.469 407.231C643.279 411.026 646.836 413.587 650.691 413.152L677.014 410.183C681.784 409.645 685.951 413.4 685.911 418.2L685.803 431.12C685.764 435.777 681.772 439.417 677.131 439.025Z" fill="#98F03E"/>
<path d="M563.523 322.762L527.137 331.255C525.062 331.74 523.265 333.032 522.147 334.846L487.678 390.724C486.433 392.743 486.148 395.212 486.901 397.462L508.175 461.049C508.863 463.105 510.356 464.794 512.312 465.729L551.161 484.294C553.196 485.267 555.548 485.335 557.636 484.482L621.552 458.369C623.895 457.412 625.647 455.402 626.276 452.95L628.478 444.362C628.676 443.59 628.757 442.793 628.719 441.997L626.254 389.84C626.054 385.599 622.575 382.253 618.33 382.218L617.3 382.209C611.785 382.163 607.969 376.681 609.842 371.493L617.615 349.966C619.104 345.842 616.995 341.287 612.887 339.754L568.139 323.057C566.663 322.506 565.057 322.404 563.523 322.762Z" fill="#392663"/>
<path d="M564.504 346.955L593.138 359.467C596.408 360.895 598.336 364.316 597.865 367.853L596.407 378.803C596.081 381.253 594.638 383.416 592.502 384.661C589.723 386.28 586.241 386.078 583.669 384.146L571.363 374.905C568.835 373.006 565.424 372.774 562.663 374.315L546.185 383.504C544.56 384.41 543.302 385.854 542.627 387.587L537.445 400.89C536.791 402.57 536.723 404.422 537.253 406.145L542.589 423.495C543.072 425.065 544.026 426.449 545.323 427.457L557.438 436.882C560.266 439.083 564.212 439.134 567.097 437.008L578.97 428.257C580.703 426.979 581.734 424.959 581.752 422.806C581.787 418.559 577.984 415.306 573.794 415.999L565.447 417.379C560.547 418.189 556.101 414.386 556.142 409.42L556.217 400.367C556.232 398.626 556.814 396.938 557.875 395.557L560.885 391.643C562.959 388.945 566.512 387.855 569.742 388.924L604.602 400.47C607.196 401.329 609.171 403.452 609.842 406.1L615.145 427.042C615.737 429.377 615.244 431.854 613.805 433.785L609.783 439.185C608.905 440.363 607.718 441.278 606.355 441.826L562.527 459.468C560.553 460.262 558.344 460.238 556.388 459.4L519.428 443.558C517.246 442.623 515.592 440.766 514.913 438.491L502.24 395.996C501.633 393.96 501.861 391.765 502.873 389.897L517.945 362.093C518.263 361.508 518.652 360.965 519.103 360.476L530.039 348.644C531.569 346.989 533.726 346.056 535.98 346.074L561.368 346.286C562.448 346.295 563.515 346.522 564.504 346.955Z" fill="#E9367A"/>
<path d="M573.054 337.34L599.398 348.851C603.214 350.519 605.112 354.835 603.763 358.775L599.231 372.001C597.521 376.991 591.535 378.99 587.17 376.028L574.273 367.274C571.806 365.599 568.614 365.436 565.989 366.848L553.756 373.432C552.082 374.333 550.784 375.801 550.094 377.573L544.936 390.812C544.282 392.492 544.214 394.344 544.744 396.068L550.08 413.417C550.563 414.988 551.517 416.371 552.814 417.38L564.929 426.805C567.757 429.005 571.703 429.057 574.588 426.931L586.461 418.179C588.194 416.902 589.225 414.882 589.243 412.729C589.278 408.481 585.476 405.229 581.285 405.922L572.938 407.302C568.038 408.112 563.592 404.309 563.633 399.342L563.659 396.194C563.698 391.553 567.665 387.919 572.291 388.286L608.827 391.183C613.013 391.514 616.23 395.026 616.195 399.224L615.976 425.555C615.949 428.795 613.969 431.699 610.963 432.909L570.018 449.391C568.044 450.185 565.835 450.161 563.879 449.322L526.915 433.479C524.735 432.545 523.082 430.691 522.402 428.419L511.014 390.362C510.401 388.313 510.633 386.105 511.66 384.229L530.741 349.353C531.793 347.43 533.588 346.023 535.706 345.461L567.797 336.938C569.544 336.474 571.397 336.616 573.054 337.34Z" fill="#FC5595"/>
<path d="M394.072 304.394L336.605 336.262C333.832 337.8 332.229 340.83 332.518 343.987L337.14 394.526L358.383 489.906C359.261 493.852 362.945 496.522 366.968 496.13L406.684 492.254C408.812 492.047 410.768 490.996 412.116 489.337L415.27 485.455C416.69 483.707 417.308 481.44 416.971 479.213L401.837 379.257C401.737 378.6 401.72 377.933 401.785 377.271L408.151 312.968C408.514 309.302 406.326 305.861 402.851 304.636L400.612 303.846C398.454 303.085 396.073 303.284 394.072 304.394Z" fill="#392663"/>
<path d="M378.381 469.002L397.463 469.161C400.215 469.184 402.785 467.791 404.268 465.473L404.684 464.823C405.83 463.033 406.216 460.862 405.758 458.787L392.944 400.723C392.405 398.277 390.75 396.225 388.474 395.178L367.788 385.67C364.742 384.27 361.13 385.309 359.294 388.113C358.349 389.556 357.99 391.305 358.291 393.003L370.57 462.396C371.241 466.193 374.525 468.97 378.381 469.002Z" fill="#74C81F"/>
<path d="M356.374 372.051L351.801 354.616C351.21 352.362 351.631 349.963 352.954 348.044L353.9 346.672C355.004 345.072 356.651 343.929 358.536 343.455L381.679 337.638C387.02 336.296 392.089 340.626 391.597 346.111L389.439 370.198C389.307 371.668 388.771 373.073 387.891 374.257L387.387 374.935C385.863 376.984 383.454 378.182 380.901 378.161L364.046 378.021C360.434 377.991 357.29 375.544 356.374 372.051Z" fill="#74C81F"/>
<path d="M382.991 461.885L397.262 462.004C402.134 462.044 405.91 457.758 405.256 452.93L397.472 395.438C397.009 392.025 394.415 389.291 391.031 388.651L373.816 385.395C368.317 384.355 363.477 389.138 364.452 394.65L375.18 455.279C375.852 459.075 379.136 461.853 382.991 461.885Z" fill="#98F03E"/>
<path d="M360.984 364.933L357.292 350.857C356.26 346.921 358.346 342.838 362.14 341.368L383.978 332.905C389.789 330.653 395.83 335.617 394.747 341.754L390.749 364.412C390.07 368.259 386.711 371.054 382.804 371.021L368.656 370.904C365.044 370.874 361.9 368.427 360.984 364.933Z" fill="#98F03E"/>
<path d="M440.079 332.347L400.168 351.78C397.224 353.214 395.451 356.296 395.692 359.562L403.557 466.127C403.838 469.937 406.774 473.017 410.566 473.479L435.764 476.553C438.629 476.902 441.46 475.681 443.173 473.358L448.581 466.02C451.627 461.887 457.722 461.653 461.076 465.539L467.697 473.208C469.864 475.718 473.354 476.631 476.472 475.505L502.529 466.089C504.029 465.547 505.333 464.569 506.273 463.281L512.52 454.718C513.371 453.552 513.891 452.177 514.024 450.739L524.466 337.833C524.957 332.527 520.222 328.234 514.99 329.24L471.294 337.641C469.33 338.018 467.604 339.179 466.514 340.856C463.654 345.257 457.238 345.333 454.274 341.001L450.184 335.023C447.945 331.749 443.645 330.611 440.079 332.347Z" fill="#392663"/>
<path d="M407.135 370.145L413.68 442.325C414.051 446.421 417.468 449.569 421.58 449.603L440.04 449.756C442.721 449.779 445.235 448.456 446.736 446.234L449.496 442.147C450.481 440.689 450.734 438.858 450.183 437.188C448.134 430.981 456.469 426.795 460.224 432.146L469.568 445.461C471.494 448.205 474.927 449.457 478.168 448.598L494.353 444.303C496.059 443.851 497.567 442.847 498.643 441.448L503.006 435.776C504.098 434.356 504.682 432.611 504.664 430.819L503.994 363.648C503.958 360.05 501.524 356.918 498.045 355.995L481.364 351.572C478.32 350.764 475.085 351.819 473.101 354.265L470.331 357.678C469.123 359.168 468.49 361.044 468.548 362.961L469.042 379.196C469.293 387.461 458.371 390.629 454.161 383.513L440.782 360.901C439.354 358.488 436.767 356.998 433.963 356.975L418.927 356.85C416.51 356.83 414.214 357.903 412.679 359.771L408.922 364.344C407.587 365.968 406.946 368.052 407.135 370.145Z" fill="#D29F06"/>
<path d="M414.912 363.237L421.169 432.248C421.541 436.344 424.957 439.491 429.07 439.525L442.671 439.638C447.514 439.678 451.282 435.44 450.674 430.635L449.655 422.576C448.608 414.297 459.347 410.146 464.14 416.977L477.057 435.383C478.983 438.127 482.416 439.379 485.657 438.52L499.006 434.978C502.283 434.109 504.656 431.268 504.929 427.889L510.675 356.74C511.069 351.864 507.034 347.78 502.154 348.114L483.631 349.384C479.341 349.678 476.051 353.31 476.181 357.608L476.532 369.118C476.783 377.383 465.861 380.552 461.65 373.435L449.194 352.382C447.305 349.19 443.469 347.714 439.928 348.819L420.498 354.877C416.899 355.999 414.572 359.482 414.912 363.237Z" fill="#FFC107"/>
<path d="M39.9154 408.713C16.7251 432.147 11.6487 456.836 16.7237 469.312C37.4238 520.199 141.589 466.847 256.166 367.549C291.685 336.766 322.226 302.041 343.887 269.519" stroke="#6FC319" stroke-width="25" stroke-linecap="round"/>
<path d="M269.525 178.696C294.944 160.896 316.132 151.863 332.849 149.341" stroke="#6FC319" stroke-width="25" stroke-linecap="round"/>
<path d="M354.041 304.316C374.035 379.155 333.548 458.047 259.303 484.567C222.502 497.712 183.966 495.646 150.566 481.626C160.132 476.975 169.798 471.832 179.511 466.218C202.542 471.699 227.37 470.797 251.326 462.24C307.035 442.342 340.179 387.437 334.849 331.124C341.778 322.176 348.186 313.221 354.041 304.316Z" fill="#392663"/>
</g>
<defs>
<clipPath id="clip0_6828_3648">
<rect width="1222" height="559" fill="white"/>
</clipPath>
</defs>
</svg>
