<svg width="1222" height="559" viewBox="0 0 1222 559" fill="none" xmlns="http://www.w3.org/2000/svg">
<g clip-path="url(#clip0_6833_3870)">
<path d="M290.405 256.387C262.638 229.083 229.863 216.416 191.286 219.373C188.311 219.602 185.247 220.225 183.67 216.561C182.661 214.217 180.715 214.225 178.642 214.873C175.99 215.702 173.339 216.538 170.7 217.412C167.252 218.555 164.296 219.225 162.694 214.482C161.142 209.889 163.386 208.345 167.091 207.264C169.567 206.542 172.025 205.733 174.437 204.82C176.385 204.083 179.229 203.668 178.048 200.569C177.034 197.909 174.707 199.086 172.918 199.714C166.364 202.013 159.852 204.428 153.324 206.802C149.884 208.054 146.992 208.7 145.362 203.936C143.74 199.197 146.305 197.894 149.87 196.834C156.336 194.914 162.822 193.053 169.247 191C171.245 190.362 174.097 189.524 173.283 186.786C172.346 183.636 169.677 185.468 167.745 185.995C165.066 186.724 162.434 187.639 159.813 188.562C156.364 189.776 154.301 188.917 153.041 185.206C151.672 181.168 153.635 179.857 156.898 178.839C160.112 177.837 163.294 176.69 166.394 175.379C168.133 174.643 169.408 173.242 168.478 171.113C167.644 169.203 165.967 169.415 164.394 169.934C152.897 173.722 141.4 177.509 129.931 181.381C126.329 182.597 127.401 185.328 128.212 187.81C132.467 200.834 136.525 213.929 141.14 226.824C142.984 231.977 141.662 234.601 137.195 237.416C92.595 265.532 70.5681 316.054 81.1218 367.172C85.9488 390.552 96.4674 411.314 113.732 428.266C114.863 429.377 115.986 430.502 117.034 431.691C117.401 432.108 117.531 432.734 118.064 433.919C110.725 438.944 102.452 442.065 94.2872 445.326C91.7735 446.33 90.4161 443.839 89.0049 442.265C69.4182 420.416 57.4696 394.997 52.9217 365.978C45.8686 320.973 57.3028 281.062 85.5068 245.663C91.3396 238.343 97.9758 231.771 105.262 225.915C108.174 223.574 108.982 221.229 107.714 217.689C105.236 210.775 102.952 203.785 100.812 196.759C99.663 192.986 97.9195 191.793 93.8391 192.965C85.9356 195.237 79.1203 191.714 76.4484 184.62C73.6636 177.226 76.6133 170.096 84.212 166.329C86.8663 165.013 89.6918 164 92.5116 163.068C123.242 152.907 153.978 142.766 184.738 132.697C187.928 131.653 191.244 130.753 194.566 130.401C201.532 129.664 207.955 134.53 209.558 141.33C211.165 148.144 208.189 155.04 201.6 157.43C196.391 159.319 195.491 161.784 197.462 166.695C199.824 172.58 201.739 178.673 203.411 184.794C204.651 189.33 207.097 191 211.819 191.334C245.79 193.735 275.778 205.987 301.607 228.3C307.19 233.123 311.945 238.715 316.958 244.076C319.314 246.595 319.867 248.875 317.543 251.891C312.865 257.966 308.485 264.27 303.564 271.057C298.818 265.755 294.768 261.229 290.405 256.387Z" fill="white"/>
<path d="M259.957 266.799C266.788 263.879 273.163 262.9 278.763 263.793C284.354 264.685 289.202 267.448 292.991 272.07C294.499 273.91 295.18 275.411 295.168 276.857C295.155 278.304 294.448 279.814 292.898 281.671C274.845 303.31 255.336 323.556 234.675 342.684C210.372 365.183 184.771 386.094 157.086 404.313C147.326 410.736 137.195 416.463 127.28 422.726C125.96 423.56 124.92 423.804 124.001 423.651C123.069 423.497 122.16 422.919 121.14 421.89C100.672 401.245 88.0147 376.905 85.8844 347.638C85.4884 342.197 86.4237 338.418 88.7091 335.969C90.9968 333.517 94.745 332.282 100.254 332.188C114.715 331.941 129.186 331.654 143.574 329.406C148.757 328.596 153.651 326.798 159.123 325.339L159.131 325.337C180.07 319.394 196.426 306.482 213.327 294.863C228.346 284.538 243.112 273.998 259.957 266.799Z" fill="white" stroke="white"/>
<path d="M139.489 3.28809C158.96 -4.26752 181.664 4.39216 190.514 22.7158C200.253 42.8839 193.51 65.8146 174.638 76.8096C156.36 87.4585 132.31 82.1541 120.399 64.833C119.41 63.3943 118.587 61.8591 117.449 59.9248C112.381 47.8228 112.202 35.8776 116.118 25.8633C120.037 15.8437 128.068 7.71992 139.489 3.28809Z" fill="white" stroke="white"/>
<path d="M138.485 90.3369C142.671 89.7835 147.052 90.5564 151.506 92.6885C156.176 94.9239 159.605 97.9954 161.85 101.777C164.095 105.561 165.171 110.086 165.083 115.253C164.918 124.984 156.988 134.411 147.414 136.593C136.01 139.191 125.608 134.084 119.805 122.618C117.757 117.195 117.423 112.308 118.592 107.911C119.763 103.507 122.455 99.5477 126.54 96.0098C130.275 92.775 134.3 90.8904 138.485 90.3369Z" fill="white" stroke="white"/>
<path d="M114.744 502.272C119.083 501.832 122.582 502.62 125.138 504.408C127.701 506.202 129.377 509.046 129.978 512.833C131.004 519.302 126.778 525.577 120.396 527.061C114.004 528.546 107.299 524.519 105.248 517.889C104.262 514.701 104.658 511.601 106.278 508.899C107.895 506.203 110.752 503.873 114.744 502.272Z" fill="white" stroke="white"/>
<path d="M77.8154 59.3711C85.369 56.8478 91.9049 57.2135 97.3291 59.9443C102.762 62.6797 107.148 67.823 110.323 74.9795C113.111 81.2634 112.914 86.6149 110.717 91.4688C108.515 96.3334 104.284 100.741 98.8975 105.079C88.9933 108.673 80.9651 108.786 74.8242 105.814C68.674 102.838 64.2988 96.7091 61.8389 87.5684C60.0395 80.8825 60.8118 74.9239 63.6201 70.1035C66.4314 65.2783 71.3123 61.5435 77.8154 59.3711Z" fill="white" stroke="white"/>
<path d="M322.922 465.159C324.875 465.039 326.884 465.406 329.086 466.015C331.28 466.622 333.574 467.439 336.21 468.245C341.93 473.007 344.96 477.994 344.766 483.534C344.564 489.284 342.852 494.134 339.641 497.619C336.434 501.099 331.683 503.271 325.299 503.576C318.823 503.886 313.87 502.234 310.443 499.076C307.014 495.916 305.049 491.188 304.67 485.218C304.291 479.235 305.565 474.444 308.531 471.048C311.496 467.653 316.223 465.571 322.922 465.159Z" fill="white" stroke="white"/>
<path d="M183.447 455.573C240.169 419.077 271.883 393.218 321.087 337.628C322.282 345.102 322.666 353.958 322.012 361.652C320.905 374.669 317.162 387.658 311.009 399.82C304.855 411.983 296.422 423.059 286.227 432.37C276.032 441.681 264.292 449.029 251.728 453.962C239.165 458.895 226.044 461.309 213.173 461.061C203.264 460.87 192.475 458.849 183.447 455.573Z" fill="white" stroke="white"/>
<rect x="660.737" y="309.371" width="35.1838" height="30.585" rx="8" transform="rotate(0.476648 660.737 309.371)" fill="white"/>
<rect x="892.736" y="321.551" width="51.754" height="30.585" rx="8" transform="rotate(0.476648 892.736 321.551)" fill="white"/>
<path d="M553.34 127.353C555.149 126.546 557.194 126.439 559.077 127.052L569.09 130.313C573.304 131.686 575.6 136.224 574.208 140.432L560.022 183.339L600.923 169.197L619.596 164.079C621.327 163.605 623.167 163.727 624.82 164.425L642.989 172.091C644.655 172.794 645.732 174.432 645.717 176.239C645.693 179.036 648.219 181.165 650.971 180.669L653.785 180.162C655.428 179.866 657.124 180.182 658.55 181.05L672.68 189.653L673.907 171.541C674.166 167.726 677.088 164.627 680.881 164.146L698.269 161.939C699.709 161.756 701.168 162.078 702.397 162.849L705.972 165.09C708.573 166.721 711.956 164.869 711.982 161.798C712 159.63 713.773 157.888 715.94 157.906L793.641 158.552C796.44 158.576 799.001 160.058 800.426 162.422L868.068 144.376C870.314 143.777 872.711 144.184 874.633 145.493L904.772 166.024C905.583 162.414 908.819 159.755 912.641 159.786L939.526 160.01C940.217 160.016 940.883 160.278 941.393 160.744C942.87 162.096 945.247 161.506 945.919 159.62L946.244 158.708C946.713 157.391 947.933 156.488 949.329 156.424L1026.14 152.886C1029.45 152.733 1032.52 154.64 1033.84 157.679L1037.04 165.011L1114.46 147.887C1116.6 147.413 1118.84 147.839 1120.66 149.065L1172.96 184.317C1176.61 186.779 1177.59 191.729 1175.14 195.392L1150.5 232.3C1148.66 235.056 1148.71 238.662 1150.63 241.366L1164.31 260.677C1165.74 262.694 1166.15 265.26 1165.43 267.626L1141.68 345.879C1140.73 349.005 1137.97 351.24 1134.72 351.524L1068.34 357.325C1067.39 357.408 1066.44 357.321 1065.52 357.068L1011.18 342.072L1010.11 342.831C1008.37 344.058 1006.22 344.546 1004.13 344.187L922.611 330.195C919.533 329.666 917.043 327.394 916.236 324.378L914.981 319.691L880.048 339.897C876.326 342.049 871.567 340.874 869.275 337.237L868.983 336.772C865.135 330.667 855.807 332.376 854.374 339.45L853.943 341.574C853.213 345.179 850.118 347.821 846.443 347.978L789.797 350.398C786.078 350.557 782.838 348.147 781.802 344.737L777.526 347.76C775.794 348.983 773.647 349.47 771.557 349.112L690.032 335.141C686.955 334.613 684.465 332.343 683.656 329.327L677.841 307.636L652.976 336.838C651.592 338.463 649.615 339.467 647.486 339.628L573.446 345.214C569.667 345.499 566.214 343.093 565.163 339.464C563.758 340.322 562.102 340.741 560.414 340.619L512.541 337.164L412.091 366.276C408.165 367.414 404.012 365.408 402.462 361.625L335.664 198.649C334.601 196.056 334.974 193.094 336.644 190.844L359.524 160.031C360.754 158.374 362.577 157.256 364.611 156.911L426.948 146.35C431.307 145.611 435.44 148.549 436.174 152.908L451.643 244.742C452.587 250.347 458.911 253.208 463.743 250.215L482.223 238.771L480.458 231.197C480.238 230.255 480.394 229.263 480.889 228.432L481.258 227.812C482.573 225.608 480.998 222.807 478.431 222.786C476.868 222.773 475.524 221.672 475.205 220.142L465.461 173.451C464.692 169.766 466.596 166.043 470.034 164.51L553.34 127.353ZM370.137 184.52C366.943 184.371 363.965 186.139 362.567 189.015L360.97 192.303C360.041 194.215 359.911 196.419 360.609 198.427L408.611 336.456C410.074 340.661 414.689 342.864 418.878 341.355L500.958 311.789C502.943 311.074 504.564 309.604 505.471 307.699L508.017 302.346C508.868 300.558 509.026 298.517 508.46 296.619L500.5 269.977C499.09 265.257 493.791 262.92 489.355 265.063L449.154 284.482C444.557 286.702 439.085 284.106 437.896 279.142L417.135 192.502C416.305 189.04 413.287 186.542 409.73 186.375L370.137 184.52ZM1091.07 178.172C1089.39 177.516 1087.55 177.442 1085.83 177.964L1041.11 191.525C1038.62 192.28 1036.65 194.197 1035.83 196.665L1024.1 232.071C1022.89 235.731 1024.46 239.736 1027.84 241.595L1082.4 271.628C1086.01 273.618 1087.52 278.031 1085.88 281.818L1084.82 284.259C1084.31 285.437 1083.53 286.475 1082.53 287.285L1076.85 291.901C1073.99 294.224 1069.92 294.296 1066.98 292.075L1042.19 273.335C1037.99 270.162 1031.92 271.838 1029.95 276.718L1018.92 303.973C1017.29 308.015 1019.19 312.622 1023.2 314.332L1062.37 331.026C1063.96 331.703 1065.72 331.848 1067.4 331.439L1119.39 318.768C1122.5 318.01 1124.86 315.472 1125.39 312.316L1133.34 264.794C1133.98 261.001 1131.82 257.292 1128.21 255.965L1069.93 234.535C1065.92 233.063 1063.78 228.71 1065.05 224.64L1066.82 218.975C1067.58 216.548 1069.45 214.626 1071.85 213.797L1079.22 211.259C1081.65 210.425 1084.32 210.8 1086.42 212.269L1109.05 228.114C1113.23 231.046 1119.06 229.352 1121.02 224.631L1130.29 202.315C1132.01 198.177 1130 193.434 1125.82 191.798L1091.07 178.172ZM513.745 223.88C510.135 222.209 505.845 223.444 503.676 226.779L503.451 227.126C502.347 228.823 501.929 230.876 502.279 232.87L517.625 320.249C518.293 324.05 521.578 326.833 525.437 326.865L551.31 327.08C554.071 327.103 556.649 325.7 558.129 323.37L559.607 321.045C560.739 319.263 561.121 317.105 560.669 315.043L544.592 241.646C544.057 239.202 542.408 237.15 540.138 236.098L513.745 223.88ZM614.672 188.748C612.855 188.004 610.827 187.954 608.975 188.608L556.622 207.102C552.543 208.543 550.348 212.966 551.668 217.085L567.445 266.337C568.216 268.745 570.081 270.646 572.472 271.465L574.616 272.2C579.11 273.739 581.28 278.832 579.278 283.14L577.124 287.775C576.422 289.287 576.21 290.981 576.517 292.62L581.191 317.555C581.982 321.775 585.963 324.618 590.211 323.998L646.067 315.835C648.061 315.544 649.871 314.51 651.136 312.943L679.274 278.065C680.407 276.66 681.033 274.913 681.048 273.108L681.466 222.892C681.492 219.705 679.624 216.806 676.711 215.513L648.876 203.158C646.63 202.161 644.05 202.251 641.879 203.404L638.717 205.083C634.239 207.46 628.847 204.187 628.889 199.118C628.912 196.382 627.266 193.908 624.735 192.871L614.672 188.748ZM872.902 183.009C871.091 181.528 868.723 180.914 866.421 181.328L799.687 193.315C795.707 194.03 792.886 197.604 793.114 201.641L799.607 316.459C799.878 321.246 804.27 324.721 808.99 323.885L831.627 319.874C835.422 319.201 838.199 315.918 838.231 312.063L838.37 295.352C838.433 287.753 848.062 284.514 852.704 290.532L875.662 320.293C878.204 323.588 882.848 324.383 886.342 322.123L909.329 307.252C913.579 304.503 914.24 298.548 910.697 294.934L889.674 273.493C886.359 270.111 886.691 264.605 890.388 261.646L902.843 251.677C904.271 250.534 905.265 248.936 905.658 247.149L911.56 220.3C912.207 217.357 911.145 214.299 908.813 212.39L872.902 183.009ZM930.077 178.992C926.071 178.959 922.658 181.893 922.091 185.858L913.129 248.452C912.97 249.562 913.046 250.693 913.353 251.772L929.73 309.396C930.631 312.564 933.382 314.857 936.661 315.171L1001.54 321.399C1006.21 321.847 1010.26 318.195 1010.3 313.502L1010.5 288.924C1010.55 284.066 1006.28 280.294 1001.46 280.926L967.361 285.402C963.139 285.956 959.223 283.107 958.451 278.92L957.47 273.591C956.47 268.155 961.151 263.367 966.608 264.244L986.883 267.504C991.719 268.281 996.112 264.57 996.153 259.672L996.326 238.905C996.362 234.487 992.811 230.876 988.393 230.839L967.693 230.667C961.982 230.619 958.159 224.774 960.404 219.523L962.742 214.052C964.471 210.007 969.141 208.117 973.197 209.82L1002.81 222.261C1007.2 224.105 1012.22 221.733 1013.58 217.172L1020.12 195.234C1021.55 190.422 1018.25 185.494 1013.26 184.989L960.343 179.636C957.744 179.373 955.214 180.584 953.789 182.773L952.325 185.024C949.589 189.227 943.165 188.197 941.88 183.349C941.212 180.828 938.94 179.066 936.332 179.044L930.077 178.992ZM705.936 195.459C701.971 195.426 698.58 198.302 697.965 202.219L690.327 250.932C690.137 252.148 690.23 253.393 690.598 254.567L704.749 299.683C705.718 302.773 708.455 304.975 711.681 305.258L767.823 310.195C772.474 310.604 776.485 306.961 776.524 302.293L776.662 285.778C776.702 280.96 772.505 277.2 767.72 277.767L739.022 281.168C734.889 281.657 731.071 278.896 730.241 274.818L730.054 273.896C728.948 268.463 733.57 263.58 739.055 264.385L754.775 266.693C759.577 267.398 763.895 263.697 763.936 258.844L764.048 245.338C764.085 240.92 760.533 237.309 756.115 237.272L740.478 237.142C734.645 237.093 730.824 231.019 733.304 225.739L733.856 224.564C735.637 220.774 740.041 218.999 743.953 220.495L769.254 230.165C773.523 231.797 778.29 229.526 779.713 225.182L784.467 210.664C786.066 205.784 782.717 200.682 777.603 200.208L731.943 195.979C729.711 195.772 727.537 196.765 726.232 198.588L724.742 200.669C722.283 204.101 716.95 203.194 715.765 199.142C715.138 196.999 713.181 195.519 710.947 195.5L705.936 195.459ZM604.285 235.198C603.593 229.827 608.324 225.334 613.652 226.303L638.835 230.886C642.663 231.583 645.435 234.932 645.403 238.823L645.176 266.15C645.152 268.977 643.638 271.581 641.193 273.001L621.804 284.26C616.858 287.131 610.584 284.037 609.852 278.365L604.285 235.198ZM1011.47 239.467C1009.55 240.603 1008.25 242.691 1008.23 245.087C1008.21 247.008 1009.04 248.841 1010.49 250.105L1020.07 258.468C1020.73 259.042 1021.28 259.714 1021.72 260.451C1021.83 258.908 1021.49 257.347 1020.72 255.967L1011.47 239.467ZM776.46 247.067C775.952 247.99 775.659 249.05 775.65 250.177C775.639 251.546 776.056 252.869 776.821 253.973L776.46 247.067ZM838.401 206.017C840.004 205.551 841.715 205.598 843.29 206.153L860.867 212.336C864.649 213.666 866.861 217.59 866.044 221.514L861.761 242.076C861.133 245.085 858.837 247.469 855.854 248.209L843.947 251.162C839.158 252.349 834.446 248.961 834.048 244.043L831.667 214.633C831.361 210.847 833.76 207.367 837.408 206.306L838.401 206.017ZM543.378 172.505C543.867 167.016 538.789 162.688 533.446 164.04L501.956 172.014C500.068 172.492 498.419 173.642 497.318 175.249L495.271 178.239C493.963 180.149 493.548 182.533 494.131 184.774L500.316 208.535C501.227 212.035 504.374 214.489 507.991 214.52L530.929 214.711C533.491 214.732 535.91 213.523 537.432 211.462L538.916 209.451C539.788 208.27 540.319 206.871 540.449 205.409L543.378 172.505Z" fill="white"/>
<path d="M1159.95 315.351L1102.34 329.67C1099.51 330.373 1097.28 332.561 1096.54 335.38L1086.45 373.331C1085.81 375.761 1086.34 378.353 1087.9 380.329L1098.09 393.298C1100.2 395.979 1100.37 399.702 1098.53 402.57L1097.74 403.798C1097.19 404.655 1096.8 405.611 1096.61 406.612L1088.14 450.562C1087.96 451.482 1087.95 452.427 1088.1 453.352L1090.23 466.523C1090.73 469.624 1093 472.145 1096.03 472.967L1147.44 486.914C1148.67 487.247 1149.96 487.283 1151.2 487.017L1204.24 475.699C1206.51 475.216 1208.45 473.774 1209.57 471.747L1213.84 464.025C1214.51 462.827 1214.85 461.479 1214.84 460.109L1214.47 393.679C1214.46 391.419 1213.49 389.271 1211.81 387.764L1208.31 384.625C1205.95 382.516 1205.06 379.219 1206.03 376.21L1217.14 341.762C1217.69 340.049 1217.65 338.2 1217.02 336.513L1213.91 328.182C1212.92 325.525 1210.6 323.59 1207.81 323.097L1163.27 315.236C1162.17 315.042 1161.03 315.081 1159.95 315.351Z" fill="white"/>
<path d="M1153.2 329.692L1180.61 339.767C1184.52 341.204 1186.67 345.404 1185.56 349.419L1180.5 367.609C1179.03 372.893 1172.8 375.165 1168.28 372.069L1152.17 361.054C1149.84 359.459 1146.84 359.212 1144.28 360.405L1140.48 362.173C1138.15 363.26 1136.48 365.403 1136 367.931L1135.13 372.513C1134.39 376.425 1136.63 380.289 1140.4 381.577L1187.34 397.621C1190.76 398.788 1192.97 402.1 1192.74 405.703L1190.01 448.306C1189.8 451.525 1187.68 454.305 1184.63 455.357L1145.84 468.731C1144.02 469.36 1142.03 469.309 1140.24 468.587L1108.96 455.961C1105.2 454.447 1103.17 450.372 1104.22 446.466L1110.31 423.826C1111.77 418.382 1118.26 416.118 1122.79 419.47L1140.31 432.423C1143.57 434.831 1148.11 434.424 1150.89 431.477L1153.61 428.588C1154.47 427.67 1155.11 426.562 1155.47 425.352L1156.05 423.352C1157.12 419.712 1155.48 415.822 1152.14 414.039L1107 390.007C1103.87 388.339 1102.21 384.807 1102.92 381.33L1109.52 349.351C1110.05 346.758 1111.83 344.597 1114.28 343.58L1147.37 329.815C1149.23 329.041 1151.31 328.997 1153.2 329.692Z" fill="#24BFF2"/>
<path d="M1031.97 333.238L993.881 375.861C992.288 377.643 991.576 380.044 991.939 382.406L1003.45 457.339C1003.91 460.389 1006.1 462.898 1009.05 463.786L1057.94 478.475C1059.77 479.026 1061.75 478.9 1063.5 478.121L1101.3 461.276C1102.59 460.703 1103.7 459.803 1104.52 458.664L1109.78 451.418C1110.28 450.719 1110.67 449.943 1110.93 449.12L1129.25 390.836C1130.05 388.267 1129.51 385.463 1127.81 383.377L1094.3 342.34C1093.08 340.854 1091.38 339.854 1089.49 339.521L1039.33 330.69C1036.6 330.21 1033.82 331.173 1031.97 333.238Z" fill="white"/>
<path d="M1048.19 341.838L1092.09 352.221C1092.24 352.257 1092.38 352.356 1092.46 352.492L1116.17 392.137C1116.25 392.273 1116.27 392.438 1116.23 392.591L1103.26 441.637C1103.21 441.811 1103.09 441.955 1102.92 442.027L1065.08 458.618C1064.93 458.684 1064.76 458.684 1064.61 458.618L1025.41 441.386C1025.23 441.308 1025.11 441.147 1025.07 440.957L1015.11 389.53C1015.08 389.375 1015.12 389.213 1015.21 389.082L1047.56 342.077C1047.7 341.876 1047.95 341.781 1048.19 341.838ZM1074.54 371.629L1053.49 373.019C1053.25 373.035 1053.05 373.193 1052.97 373.419L1045.69 394.961C1045.66 395.052 1045.65 395.149 1045.66 395.244L1050.08 422.832C1050.11 423.029 1050.24 423.198 1050.42 423.279L1063.49 429.023C1063.63 429.084 1063.79 429.089 1063.93 429.037L1079 423.527C1079.19 423.458 1079.33 423.298 1079.37 423.103L1085.61 395.604C1085.64 395.479 1085.63 395.348 1085.58 395.231L1075.11 371.976C1075.01 371.751 1074.78 371.613 1074.54 371.629Z" fill="#FEE748"/>
<path d="M991.894 325.607L946.212 329.597C943.203 329.86 940.598 331.796 939.478 334.601L926.604 366.85C925.78 368.915 925.852 371.229 926.803 373.238L933.16 386.672C934.466 389.432 934.087 392.695 932.183 395.082L931.486 395.955C930.893 396.699 930.437 397.543 930.14 398.448L917.517 436.893C917.259 437.677 917.125 438.497 917.118 439.322L917.016 451.484C916.992 454.471 918.633 457.223 921.273 458.621L958.858 478.52C960.128 479.193 961.556 479.511 962.992 479.441L1004.72 477.398C1007.19 477.277 1009.47 476.015 1010.89 473.983L1014.84 468.316C1015.55 467.293 1016.02 466.118 1016.2 464.885L1024.9 404.639C1025.19 402.636 1024.71 400.598 1023.56 398.935L1021.26 395.613C1019.65 393.295 1019.38 390.303 1020.55 387.736L1034.03 358.145C1034.69 356.699 1034.91 355.091 1034.65 353.523L1033.36 345.702C1032.9 342.961 1031.06 340.651 1028.49 339.6L995.615 326.171C994.437 325.69 993.161 325.497 991.894 325.607Z" fill="white"/>
<path d="M991.879 339.242L1013.66 351.292C1017.38 353.353 1018.84 357.972 1016.97 361.799L1010.68 374.71C1008.32 379.542 1001.96 380.721 998.031 377.055L986.304 366.122C984.295 364.249 981.464 363.537 978.808 364.238L975.855 365.017C973.373 365.672 971.356 367.478 970.432 369.873L969.532 372.204C968.069 375.995 969.682 380.281 973.281 382.168L1011.08 401.99C1014.34 403.698 1016.01 407.408 1015.13 410.981L1006.65 445.542C1005.89 448.669 1003.32 451.031 1000.14 451.536L964.334 457.22C962.489 457.513 960.599 457.151 958.993 456.197L934.106 441.408C930.55 439.295 929.191 434.821 930.971 431.087L938.867 414.528C941.247 409.538 947.851 408.408 951.754 412.324L964.309 424.919C967.092 427.711 971.493 428.059 974.681 425.74L976.929 424.105C977.955 423.358 978.789 422.378 979.361 421.246L979.609 420.755C981.365 417.284 980.369 413.054 977.25 410.73L942.17 384.591C939.254 382.417 938.17 378.55 939.533 375.178L949.68 350.077C950.668 347.633 952.796 345.832 955.37 345.263L986.279 338.43C988.182 338.009 990.173 338.298 991.879 339.242Z" fill="#63E8CD"/>
<path d="M862.826 331.88L824.694 375.064C823.127 376.839 822.426 379.217 822.781 381.558L834.304 457.546C834.766 460.593 836.938 463.104 839.887 464L888.753 478.856C890.607 479.42 892.603 479.291 894.369 478.494L932.15 461.454C933.435 460.875 934.544 459.966 935.364 458.82L940.638 451.46C941.137 450.763 941.52 449.991 941.774 449.173L960.13 390.067C960.921 387.52 960.39 384.746 958.716 382.671L925.153 341.075C923.942 339.574 922.229 338.561 920.33 338.223L870.226 329.299C867.478 328.81 864.674 329.788 862.826 331.88Z" fill="white"/>
<path d="M879.529 338.236L923.428 348.714C923.584 348.751 923.718 348.85 923.799 348.988L947.508 389.005C947.589 389.141 947.612 389.304 947.572 389.456L934.592 438.966C934.547 439.14 934.425 439.283 934.261 439.356L896.418 456.107C896.266 456.174 896.092 456.174 895.94 456.107L856.743 438.715C856.566 438.636 856.439 438.476 856.403 438.286L846.452 386.374C846.423 386.22 846.456 386.06 846.545 385.93L878.905 338.478C879.042 338.276 879.291 338.179 879.529 338.236ZM905.877 368.306L884.828 369.711C884.589 369.727 884.384 369.886 884.308 370.113L877.023 391.859C876.993 391.949 876.985 392.045 877 392.139L881.413 419.987C881.444 420.184 881.573 420.353 881.756 420.434L894.822 426.232C894.963 426.293 895.122 426.299 895.266 426.246L910.339 420.682C910.526 420.613 910.666 420.453 910.71 420.258L916.952 392.498C916.979 392.375 916.966 392.245 916.915 392.129L906.455 368.654C906.354 368.429 906.124 368.29 905.877 368.306Z" fill="#FEE748"/>
<path d="M719.569 327.628L682.183 337.527C678.604 338.474 676.143 341.753 676.233 345.453L679.313 473.16C679.417 477.476 682.927 480.931 687.244 480.967L723.803 481.271C726.311 481.292 728.683 480.136 730.211 478.148L733.099 474.393C735.981 470.646 741.465 470.201 744.913 473.434L749.941 478.148C752.145 480.214 755.326 480.863 758.163 479.824L787.985 468.904C789.86 468.217 791.411 466.854 792.332 465.082L798.151 453.89C798.61 453.008 798.9 452.049 799.007 451.061L812.218 328.997C812.769 323.905 808.459 319.614 803.369 320.187L750.708 326.115C747.851 326.437 745.386 328.267 744.252 330.909L744.174 331.089C741.944 336.284 735.174 337.589 731.172 333.595L727.268 329.699C725.253 327.688 722.321 326.9 719.569 327.628Z" fill="white"/>
<path d="M689.825 355.909L696.836 451.819C697.139 455.974 700.581 459.201 704.748 459.235L721.034 459.371C725.801 459.411 729.545 455.298 729.059 450.555L727.136 431.806C726.256 423.221 737.717 419.518 742.026 426.995L757.639 454.088C759.525 457.361 763.444 458.869 767.038 457.704L782.047 452.837C785.156 451.829 787.339 449.031 787.561 445.769L794.282 346.767C794.614 341.875 790.508 337.838 785.622 338.254L763.856 340.107C759.644 340.465 756.438 344.04 756.537 348.266L757.059 370.408C757.261 379.001 745.619 381.823 741.864 374.09L726.992 343.459C725.181 339.73 720.822 338.002 716.949 339.477L694.957 347.849C691.654 349.107 689.567 352.384 689.825 355.909Z" fill="#24BFF2"/>
<path d="M806.389 324.113L802.944 329.68C802.148 330.967 801.733 332.453 801.747 333.966L802.174 378.382L792.765 463.263C792.279 467.639 795.421 471.584 799.795 472.091L832.643 475.9C835.396 476.219 838.119 475.09 839.839 472.915L846.276 464.777C847.449 463.293 848.058 461.443 847.997 459.553L845.225 374.629C845.194 373.679 845.332 372.731 845.634 371.83L861.587 324.147C863.498 318.433 858.647 312.736 852.701 313.715L811.893 320.428C809.612 320.804 807.605 322.147 806.389 324.113Z" fill="white"/>
<path d="M814.513 458.079L828.152 460.455C832.944 461.29 837.366 457.692 837.521 452.83L839.386 394.624C839.496 391.184 837.393 388.058 834.165 386.865L818.175 380.953C812.926 379.012 807.357 382.922 807.401 388.519L807.886 450.26C807.917 454.125 810.705 457.415 814.513 458.079Z" fill="#FC5595"/>
<path d="M808.903 358.569L807.617 343.977C807.262 339.955 809.959 336.3 813.906 335.452L836.307 330.643C842.412 329.332 847.598 335.208 845.539 341.103L837.94 362.86C836.648 366.556 832.871 368.775 829.014 368.103L815.499 365.748C811.928 365.126 809.222 362.18 808.903 358.569Z" fill="#FC5595"/>
<path d="M591.233 387.553L602.039 339.612C602.809 336.193 605.716 333.674 609.21 333.396L626.478 332.026C628.419 331.872 630.265 332.892 631.167 334.618C632.369 336.919 635.169 337.867 637.522 336.77L641.152 335.079C642.399 334.498 643.774 334.248 645.144 334.354L700.191 338.584C705.392 338.984 708.825 344.174 707.158 349.117L692.759 391.814C691.879 394.424 688.784 395.516 686.46 394.037C683.649 392.247 679.966 394.248 679.938 397.581L679.914 400.533C679.897 402.554 680.92 404.443 682.623 405.533L692.244 411.693C694.561 413.176 695.953 415.746 695.93 418.497L695.641 453.268C695.633 454.227 695.452 455.177 695.108 456.073L689.485 470.696C688.116 474.256 684.425 476.355 680.666 475.71L610.49 463.676C607.207 463.113 604.616 460.575 603.987 457.305L591.182 390.825C590.973 389.743 590.991 388.629 591.233 387.553Z" fill="white"/>
<path d="M683.688 452.311L638.642 447.657C635.325 447.314 632.569 444.95 631.725 441.725L619.794 396.136C619.532 395.132 619.467 394.087 619.603 393.058L626.159 343.677C626.689 339.686 630.11 336.714 634.136 336.748L636.925 336.771C638.939 336.787 640.684 338.17 641.162 340.127C642.093 343.944 647.18 344.718 649.205 341.35L650.178 339.732C651.217 338.002 653.167 337.035 655.173 337.254L692.664 341.337C697.564 341.87 700.821 346.665 699.51 351.416L695.582 365.663C694.274 370.405 689.037 372.855 684.559 370.819L666.854 362.77C662.687 360.876 657.784 362.857 656.102 367.113L655.818 367.832C653.755 373.056 657.576 378.725 663.192 378.771L674.098 378.862C678.516 378.899 682.068 382.51 682.031 386.928L681.919 400.476C681.877 405.414 677.416 409.136 672.551 408.291L662.464 406.541C657.024 405.597 652.286 410.315 653.208 415.758L653.316 416.398C654.04 420.675 658.041 423.595 662.336 422.982L683.516 419.955C688.362 419.262 692.688 423.045 692.647 427.941L692.51 444.42C692.471 449.136 688.38 452.796 683.688 452.311Z" fill="#98F03E"/>
<path d="M563.523 322.762L527.137 331.255C525.062 331.74 523.265 333.032 522.147 334.846L487.678 390.724C486.433 392.743 486.148 395.212 486.901 397.462L508.175 461.049C508.863 463.105 510.356 464.794 512.312 465.729L551.161 484.294C553.196 485.267 555.548 485.335 557.636 484.482L621.552 458.369C623.895 457.412 625.647 455.402 626.276 452.95L628.478 444.362C628.676 443.59 628.757 442.793 628.719 441.997L626.254 389.84C626.054 385.599 622.575 382.253 618.33 382.218L617.3 382.209C611.785 382.163 607.969 376.681 609.842 371.493L617.615 349.966C619.104 345.842 616.995 341.287 612.887 339.754L568.139 323.057C566.663 322.506 565.057 322.404 563.523 322.762Z" fill="white"/>
<path d="M573.25 337.539L599.878 350.262C603.47 351.978 605.254 356.075 604.063 359.873L599.167 375.486C597.52 380.739 591.183 382.797 586.763 379.514L574.498 370.404C571.916 368.486 568.435 368.301 565.664 369.936L553.629 377.034C552.015 377.986 550.787 379.474 550.158 381.239L544.733 396.459C544.178 398.018 544.119 399.71 544.566 401.304L550.099 421.051C550.529 422.583 551.405 423.952 552.616 424.983L564.585 435.175C567.514 437.669 571.804 437.726 574.797 435.309L586.382 425.956C588.135 424.541 589.161 422.415 589.18 420.163C589.219 415.442 584.953 411.851 580.308 412.695L573.007 414.023C568.069 414.921 563.534 411.104 563.576 406.085L563.617 401.134C563.656 396.472 567.657 392.831 572.303 393.23L608.836 396.373C612.999 396.731 616.185 400.232 616.151 404.41L615.899 434.694C615.872 437.839 614.006 440.677 611.129 441.947L570.172 460.023C568.057 460.957 565.641 460.93 563.547 459.948L526.748 442.702C524.623 441.706 523.042 439.827 522.425 437.563L510.818 394.992C510.3 393.093 510.501 391.069 511.382 389.309L530.817 350.456C531.813 348.464 533.595 346.978 535.733 346.355L567.562 337.077C569.451 336.526 571.475 336.691 573.25 337.539Z" fill="#FC5595"/>
<path d="M394.071 304.394L336.604 336.262C333.831 337.8 332.228 340.83 332.517 343.987L337.139 394.526L358.382 489.906C359.26 493.852 362.944 496.522 366.967 496.13L406.683 492.254C408.811 492.047 410.767 490.996 412.115 489.337L415.269 485.455C416.689 483.707 417.307 481.44 416.97 479.213L401.836 379.257C401.736 378.6 401.719 377.933 401.785 377.271L408.15 312.968C408.513 309.302 406.325 305.861 402.85 304.636L400.611 303.846C398.453 303.085 396.072 303.284 394.071 304.394Z" fill="white"/>
<path d="M377.493 472.235L397.055 472.397C401.968 472.438 405.756 468.082 405.035 463.223L395.679 400.22C395.172 396.808 392.535 394.104 389.137 393.513L365.97 389.483C360.45 388.522 355.679 393.387 356.745 398.887L369.706 465.757C370.43 469.494 373.687 472.203 377.493 472.235Z" fill="#98F03E"/>
<path d="M353 368.4L348.404 352.382C347.238 348.318 349.436 344.049 353.421 342.636L382.225 332.424C388.051 330.358 393.919 335.4 392.755 341.471L387.693 367.86C386.966 371.654 383.632 374.385 379.77 374.353L360.623 374.194C357.079 374.164 353.977 371.807 353 368.4Z" fill="#98F03E"/>
<path d="M440.079 332.347L400.168 351.78C397.224 353.214 395.451 356.296 395.692 359.562L403.557 466.127C403.838 469.937 406.774 473.017 410.566 473.479L435.764 476.553C438.629 476.902 441.46 475.681 443.173 473.358L448.581 466.02C451.627 461.887 457.722 461.653 461.076 465.539L467.697 473.208C469.864 475.718 473.354 476.631 476.472 475.505L502.529 466.089C504.029 465.547 505.333 464.569 506.273 463.281L512.52 454.718C513.371 453.552 513.891 452.177 514.024 450.739L524.466 337.833C524.957 332.527 520.222 328.234 514.99 329.24L471.294 337.641C469.33 338.018 467.604 339.179 466.514 340.856C463.654 345.257 457.238 345.333 454.274 341.001L450.184 335.023C447.945 331.749 443.645 330.611 440.079 332.347Z" fill="white"/>
<path d="M414.763 364.707L421.128 449.587C421.439 453.736 424.878 456.954 429.039 456.988L442.718 457.102C447.493 457.142 451.24 453.016 450.741 448.266L449.386 435.381C448.487 426.832 459.866 423.076 464.233 430.481L476.883 451.928C478.776 455.138 482.636 456.616 486.189 455.49L499.149 451.386C502.281 450.394 504.488 447.589 504.715 444.312L510.779 356.775C511.118 351.886 507.021 347.844 502.136 348.25L483.462 349.8C479.24 350.15 476.023 353.731 476.126 357.967L476.519 374.14C476.727 382.696 465.166 385.558 461.357 377.894L449.175 353.382C447.353 349.717 443.059 348.017 439.222 349.444L419.952 356.611C416.612 357.853 414.496 361.154 414.763 364.707Z" fill="#FFC107"/>
<path d="M34.9154 408.713C11.7251 432.147 6.64867 456.836 11.7237 469.312C32.4238 520.199 136.589 466.847 251.166 367.549C286.685 336.766 317.226 302.041 338.887 269.519" stroke="white" stroke-width="25" stroke-linecap="round"/>
<path d="M264.525 178.696C289.944 160.896 311.132 151.863 327.849 149.341" stroke="white" stroke-width="25" stroke-linecap="round"/>
<path d="M349.041 304.316C369.035 379.155 328.548 458.047 254.303 484.567C217.502 497.712 178.966 495.646 145.566 481.626C155.132 476.975 164.798 471.832 174.511 466.218C197.542 471.699 222.37 470.797 246.326 462.24C302.035 442.342 335.179 387.437 329.849 331.124C336.778 322.176 343.186 313.221 349.041 304.316Z" fill="white"/>
</g>
<defs>
<clipPath id="clip0_6833_3870">
<rect width="1222" height="559" fill="white"/>
</clipPath>
</defs>
</svg>
