<svg width="2500" height="544" viewBox="0 0 2500 544" fill="none" xmlns="http://www.w3.org/2000/svg">
<g clip-path="url(#clip0_6998_44)">
<path d="M310.478 451.065C310.473 457.512 307.909 463.694 303.35 468.253C298.791 472.812 292.609 475.376 286.162 475.381H26.703C20.2554 475.381 14.0714 472.822 9.50866 468.267C4.94593 463.712 2.37746 457.532 2.3672 451.084V71.3221C2.36465 68.1256 2.99237 64.9599 4.21445 62.0062C5.43654 59.0525 7.229 56.3687 9.48929 54.1084C11.7496 51.8481 14.4334 50.0557 17.3871 48.8336C20.3408 47.6115 23.5064 46.9838 26.703 46.9863H193.217L310.478 166.573V451.065Z" fill="#23A566"/>
<path d="M206.121 163.453L310.478 263.199V165.875H218.037C214.001 165.921 210.023 164.919 206.489 162.969L206.121 163.453Z" fill="#1C8F5A"/>
<path d="M310.478 166.379H217.785C211.338 166.374 205.156 163.811 200.597 159.252C196.037 154.693 193.474 148.511 193.469 142.063V46.3281L310.478 166.379Z" fill="#8ED1B1"/>
<path fill-rule="evenodd" clip-rule="evenodd" d="M236.29 396.407H75.957V257.387H236.29V396.407ZM166.092 277.44V301.776H216.585V277.479L166.092 277.44ZM166.092 317.102V340.353H216.585V316.986L166.092 317.102ZM166.092 355.175V376.702H216.585V355.059L166.092 355.175ZM146.271 376.585V355.059H95.7976V376.585H146.271ZM146.271 340.101V316.986H95.7976V340.217L146.271 340.101ZM146.271 302.028V277.44H95.7976V301.776L146.271 302.028Z" fill="white"/>
<path d="M859.08 261.3C859.08 230.803 836.1 209.955 809.42 209.955C782.74 209.955 759.741 230.803 759.741 261.3C759.741 291.488 782.74 312.646 809.42 312.646C836.1 312.646 859.08 291.449 859.08 261.3ZM897.753 261.3C897.753 310.088 858.092 346.049 809.401 346.049C760.729 346.049 721.067 310.088 721.067 261.3C721.067 212.164 760.729 176.551 809.42 176.551C858.092 176.551 897.753 212.164 897.753 261.3ZM1049.64 261.3C1049.64 230.803 1026.66 209.955 999.979 209.955C973.299 209.955 950.319 230.803 950.319 261.3C950.319 291.488 973.299 312.646 999.979 312.646C1026.66 312.646 1049.64 291.449 1049.64 261.3ZM1088.31 261.3C1088.31 310.088 1048.65 346.049 999.979 346.049C951.308 346.049 911.626 310.088 911.626 261.3C911.626 212.203 951.308 176.551 999.979 176.551C1048.65 176.551 1088.31 212.164 1088.31 261.3ZM1236.98 261.591C1236.98 231.753 1216.29 209.936 1189.98 209.936C1163.28 209.936 1140.94 231.753 1140.94 261.591C1140.94 291.139 1163.28 312.646 1189.96 312.646C1216.29 312.646 1236.98 291.119 1236.98 261.591ZM1270.97 181.667V333.823C1270.97 396.406 1232.6 421.982 1187.26 421.982C1170.79 422.251 1154.59 417.656 1140.71 408.772C1126.83 399.888 1115.88 387.108 1109.22 372.032L1142.87 358.546C1148.88 372.342 1163.57 388.617 1187.24 388.617C1216.25 388.617 1234.23 371.373 1234.23 338.938V326.732H1232.87C1224.23 337.02 1207.55 346.01 1186.51 346.01C1142.49 346.01 1102.15 309.1 1102.15 261.61C1102.15 213.753 1142.49 176.551 1186.51 176.551C1207.51 176.551 1224.19 185.522 1232.89 195.501H1234.25V181.705H1270.97V181.667ZM1331.52 92.4419H1293.79V340.837H1331.5L1331.52 92.4419ZM1386.1 258.665L1464.8 227.219C1460.48 216.62 1447.44 209.257 1432.13 209.257C1412.47 209.257 1385.11 225.959 1386.1 258.665ZM1478.5 289.143L1508.51 308.402C1500.25 320.154 1489.26 329.716 1476.47 336.262C1463.69 342.808 1449.5 346.141 1435.14 345.972C1385.11 345.972 1347.75 308.771 1347.75 261.223C1347.75 210.827 1385.44 176.474 1430.82 176.474C1476.5 176.474 1498.86 211.466 1506.19 230.377L1510.18 240.006L1392.45 286.934C1401.46 303.946 1415.49 312.607 1435.14 312.607C1454.84 312.607 1468.48 303.287 1478.5 289.143ZM578.288 239.212V203.251H704.191C705.412 209.509 706.051 216.93 706.051 224.952C706.051 251.923 698.398 285.287 673.694 309.042C649.668 333.126 618.977 345.972 578.327 345.972C502.956 345.972 439.598 286.876 439.598 214.373C439.598 141.869 502.956 82.7734 578.327 82.7734C620.023 82.7734 649.707 98.5064 672.028 119.025L645.677 144.407C629.672 129.953 607.991 118.735 578.288 118.735C523.262 118.735 480.228 161.4 480.228 214.373C480.228 267.345 523.262 310.011 578.288 310.011C613.978 310.011 634.303 296.215 647.324 283.679C657.903 273.507 664.839 258.995 667.59 239.173L578.288 239.212ZM1736.52 288.659C1736.52 308.286 1729.32 324.058 1714.92 335.955C1700.29 347.657 1682.56 353.509 1661.68 353.509C1643.08 353.509 1626.7 348.084 1612.5 337.214C1598.3 326.364 1588.47 311.522 1583.05 292.728L1610.62 281.47C1612.5 288.136 1615.1 294.2 1618.45 299.625C1621.78 305.05 1625.66 309.759 1630.04 313.731C1634.63 317.49 1639.65 320.512 1645.07 322.799C1650.5 324.891 1656.23 325.937 1662.3 325.937C1675.45 325.937 1686.21 322.605 1694.56 315.92C1702.91 309.022 1707.09 299.935 1707.09 288.659C1707.09 279.261 1703.64 271.221 1696.75 264.555C1690.27 258.084 1678.16 251.806 1660.42 245.761C1642.45 239.29 1631.29 234.911 1626.9 232.586C1603.1 220.495 1591.19 202.631 1591.19 179.031C1591.19 162.543 1597.77 148.457 1610.93 136.754C1624.3 125.07 1640.69 119.219 1660.11 119.219C1677.23 119.219 1692.06 123.598 1704.57 132.375C1717.11 140.939 1725.46 151.692 1729.65 164.635L1702.71 175.912C1700.17 167.518 1694.87 160.231 1687.66 155.238C1680.35 149.6 1671.38 146.771 1660.73 146.771C1649.45 146.771 1639.96 149.91 1632.24 156.168C1624.49 162.02 1620.62 169.634 1620.62 179.031C1620.62 186.782 1623.66 193.447 1629.73 199.085C1636.41 204.704 1650.92 211.408 1673.26 219.139C1696.01 226.85 1712.21 236.364 1721.8 247.621C1731.62 258.704 1736.52 272.383 1736.52 288.659ZM1766.21 124.218H1795.02V195.016L1793.76 216.329H1795.02C1799.4 208.792 1806.08 202.534 1815.07 197.535C1823.78 192.643 1833.59 190.05 1843.57 189.998C1862.35 189.998 1876.76 195.423 1886.78 206.274C1897.01 216.93 1902.13 232.179 1902.13 252V348.491H1873.32V257.658C1873.32 230.086 1861.11 216.31 1836.68 216.31C1824.97 216.31 1815.07 221.212 1806.92 231.036C1799.02 240.522 1794.8 252.527 1795.02 264.865V348.491H1766.21V124.218ZM2004.88 353.509C1982.32 353.509 1963.74 345.759 1949.11 330.316C1934.5 314.874 1927.2 295.343 1927.2 271.744C1927.2 248.357 1934.29 228.943 1948.49 213.501C1962.7 197.826 1980.85 189.998 2003 189.998C2025.74 189.998 2043.82 197.419 2057.17 212.241C2070.75 226.85 2077.53 247.427 2077.53 273.933L2077.22 277.072H1956.63C1957.06 292.108 1962.06 304.217 1971.67 313.401C1981.28 322.585 1992.77 327.197 2006.12 327.197C2024.5 327.197 2038.9 318.013 2049.34 299.625L2075.03 312.161C2068.45 324.775 2058.47 335.297 2046.22 342.542C2034.09 349.847 2020.32 353.509 2004.88 353.509ZM1958.82 253.279H2046.84C2046.54 248.232 2045.22 243.299 2042.96 238.777C2040.7 234.255 2037.54 230.238 2033.69 226.967C2025.96 219.856 2015.51 216.31 2002.36 216.31C1991.51 216.31 1982.11 219.643 1974.17 226.327C1966.45 233.012 1961.34 242.022 1958.82 253.279ZM2174.33 353.509C2151.78 353.509 2133.18 345.759 2118.57 330.316C2103.96 314.874 2096.64 295.343 2096.64 271.744C2096.64 248.357 2103.75 228.943 2117.95 213.501C2132.15 197.826 2150.31 189.998 2172.46 189.998C2195.2 189.998 2213.26 197.419 2226.63 212.241C2240.21 226.85 2246.99 247.427 2246.99 273.933L2246.68 277.072H2126.09C2126.52 292.108 2131.51 304.217 2141.13 313.401C2150.74 322.585 2162.21 327.197 2175.58 327.197C2193.96 327.197 2208.36 318.013 2218.8 299.625L2244.49 312.161C2237.91 324.78 2227.92 335.304 2215.66 342.542C2203.55 349.847 2189.78 353.509 2174.33 353.509ZM2128.28 253.279H2216.3C2216 248.232 2214.68 243.299 2212.42 238.777C2210.16 234.255 2207 230.238 2203.15 226.967C2195.42 219.856 2184.97 216.31 2171.82 216.31C2160.97 216.31 2151.57 219.643 2143.62 226.327C2135.91 233.012 2130.78 242.022 2128.28 253.279ZM2329.51 350.99C2317 350.99 2306.55 347.115 2298.2 339.403C2290.05 331.673 2285.88 320.919 2285.67 307.143V221.309H2258.74V195.016H2285.67V148.03H2314.48V195.016H2352.07V221.328H2314.48V297.746C2314.48 307.976 2316.47 314.99 2320.45 318.73C2324.4 322.275 2328.89 324.058 2333.91 324.058C2336.2 324.058 2338.39 323.864 2340.48 323.438C2342.79 322.798 2344.86 322.082 2346.74 321.248L2355.83 346.921C2348.31 349.634 2339.55 350.99 2329.51 350.99ZM2500 305.884C2500 319.253 2494.15 330.529 2482.47 339.713C2470.76 348.897 2456.04 353.509 2438.29 353.509C2422.85 353.509 2409.26 349.537 2397.58 341.593C2386.14 333.779 2377.39 322.62 2372.53 309.642L2398.2 298.695C2401.96 307.879 2407.38 315.087 2414.5 320.299C2421.8 325.317 2429.72 327.817 2438.29 327.817C2447.49 327.817 2455.11 325.84 2461.15 321.868C2467.43 317.896 2470.55 313.208 2470.55 307.763C2470.55 297.959 2463.03 290.751 2448 286.159L2421.7 279.571C2391.83 272.073 2376.91 257.658 2376.91 236.364C2376.91 222.375 2382.55 211.195 2393.82 202.844C2405.31 194.28 2419.92 189.998 2437.67 189.998C2451.23 189.998 2463.46 193.234 2474.31 199.705C2485.39 206.177 2493.1 214.857 2497.5 225.707L2471.81 236.364C2468.85 229.858 2463.77 224.555 2457.39 221.328C2450.73 217.518 2443.16 215.571 2435.48 215.69C2427.96 215.69 2421.18 217.57 2415.12 221.309C2409.26 225.087 2406.34 229.679 2406.34 235.104C2406.34 243.882 2414.59 250.14 2431.1 253.899L2454.27 259.847C2484.75 267.365 2500 282.71 2500 305.884Z" fill="#787879"/>
</g>
<defs>
<clipPath id="clip0_6998_44">
<rect width="2500" height="544" fill="white"/>
</clipPath>
</defs>
</svg>
